<svg width="1920" height="906" viewBox="0 0 1920 906" fill="none" xmlns="http://www.w3.org/2000/svg">
<g opacity="0.3">
<path d="M721.707 906C714.971 906 708.414 905.26 702.112 903.783C688.896 900.684 676.687 894.321 665.822 884.871C654.144 874.716 643.902 860.879 635.377 843.746C618.245 809.309 609.673 768.068 601.383 728.183C599.754 720.351 598.071 712.253 596.361 704.396C584.696 650.842 569.909 603.931 551.158 560.984C513.753 475.312 461.148 402.196 399.029 349.543C327.189 288.653 249.949 258.321 181.536 264.137C141.326 267.557 88.1983 300.077 64.454 355.614C50.3628 388.575 49.2265 425.152 61.1703 461.387L60.9331 461.54C54.6707 442.537 51.9421 423.486 52.8255 404.916C53.636 387.882 57.4722 371.23 64.2299 355.424C74.9775 330.284 92.7016 308.003 115.487 290.987C136.542 275.265 159.991 265.599 181.521 263.769C217.323 260.728 255.401 267.477 294.696 283.833C330.316 298.662 365.465 320.662 399.165 349.226C461.32 401.908 513.956 475.064 551.382 560.787C570.144 603.764 584.939 650.7 596.611 704.283C598.324 712.14 600.007 720.242 601.633 728.074C609.916 767.929 618.482 809.141 635.591 843.528C652.137 876.787 674.534 896.936 702.156 903.411C740.409 912.381 786.86 893.621 826.41 853.226C883.406 795.016 922.962 710.288 961.217 628.353C967.922 613.991 974.854 599.14 981.719 584.8C999.54 547.563 1023.67 499.31 1052.36 456.323C1081.68 412.384 1111.47 380.101 1143.44 357.627C1163.01 343.87 1183.75 334.601 1205.08 330.08C1224.79 325.902 1245.65 325.643 1267.08 329.304C1303.83 335.586 1343.44 353.331 1388.15 383.55C1476.18 443.058 1564.12 515.287 1649.52 598.236C1730.7 677.076 1810.31 766.289 1886.15 863.388L1885.97 863.658C1728.76 662.375 1561.23 500.955 1388.03 383.878C1290.18 317.735 1212.5 309.494 1143.56 357.951C1073.43 407.246 1024.43 496.207 981.935 585.001C975.073 599.337 968.141 614.188 961.436 628.55C923.17 710.514 883.602 795.268 826.567 853.518C808.136 872.343 787.402 887.026 766.608 895.977C755.623 900.706 744.704 903.798 734.149 905.169C729.943 905.726 725.791 906 721.707 906Z" fill="#A1A1A1"/>
<path d="M728.293 885.579C711.114 885.579 695.201 881.003 680.979 871.972C665.121 861.901 651.436 846.296 640.303 825.593C639.318 823.759 638.341 821.863 637.397 819.953C620.447 785.665 611.495 744.96 602.84 705.593C601.089 697.637 599.28 689.408 597.446 681.423C586.518 633.878 573.36 591.973 557.215 553.321C555.227 548.563 553.168 543.793 551.091 539.148C513.135 454.212 460.104 382.023 397.729 330.384C325.37 270.533 247.911 241.455 179.621 248.51C139.703 252.678 86.8198 285.73 62.9739 340.841C48.695 373.841 47.0792 410.492 58.2959 446.833L58.0562 446.979C52.1768 427.931 49.7609 408.844 50.879 390.253C51.9058 373.178 55.8983 356.49 62.7498 340.651C73.6068 315.555 91.2789 293.248 113.85 276.144C134.712 260.335 158.06 250.392 179.597 248.146C215.356 244.452 253.475 250.556 292.895 266.285C328.602 280.534 363.917 301.995 397.859 330.07C460.27 381.739 513.331 453.972 551.31 538.955C553.387 543.604 555.448 548.377 557.437 553.138C573.592 591.816 586.758 633.743 597.691 681.313C599.528 689.298 601.337 697.528 603.088 705.487C611.74 744.828 620.684 785.504 637.611 819.745C638.552 821.648 639.529 823.544 640.512 825.374C663.518 868.169 695.13 885.579 728.374 885.579C728.556 885.579 728.736 885.579 728.919 885.579C728.71 885.575 728.502 885.579 728.293 885.579ZM735.384 885.324C766.29 883.103 798.181 866.488 825.54 841.771C884.556 788.235 926.97 705.549 967.99 625.586C969.679 622.29 971.368 619.002 973.057 615.713C976.765 608.493 981.162 599.947 985.649 591.331C1005.78 552.694 1030.15 507.737 1058.21 467.273C1088.06 424.216 1117.89 392.265 1149.39 369.59C1168.74 355.673 1189.2 345.869 1210.19 340.45C1229.63 335.43 1250.18 334.011 1271.26 336.232C1307.67 340.071 1346.81 354.627 1390.94 380.733C1433.96 406.146 1469.33 430.068 1502.24 456.017C1548.85 492.814 1593.26 535.211 1630.55 571.828C1717.24 657.205 1802.31 754.151 1883.38 859.976L1883.2 860.242C1802.14 754.432 1717.09 657.493 1630.4 572.127C1593.12 535.513 1548.72 493.124 1502.11 456.338C1469.21 430.396 1433.86 406.481 1390.84 381.075C1294.72 324.203 1218.03 320.656 1149.51 369.918C1078.39 421.102 1027.75 511.157 985.86 591.55C981.37 600.166 976.976 608.709 973.268 615.932C971.579 619.217 969.89 622.509 968.201 625.805C927.168 705.793 884.738 788.509 825.681 842.084C811.037 855.312 795.455 865.821 779.365 873.313C764.388 880.281 749.624 884.31 735.384 885.324Z" fill="#A1A1A1"/>
<path d="M735.555 865.624C733.488 865.624 731.435 865.562 729.397 865.435C712.233 864.374 696.349 858.864 682.187 849.053C666.699 838.322 653.28 822.429 642.306 801.81C641.331 799.973 640.359 798.073 639.421 796.162C622.661 762.042 613.336 721.88 604.322 683.046C602.443 674.952 600.499 666.58 598.528 658.457C587.062 611.072 573.557 569.503 557.237 531.372C555.217 526.657 553.127 521.928 551.019 517.32C512.514 433.124 459.055 361.861 396.425 311.235C323.55 252.424 245.872 224.597 177.702 232.891C139.319 237.635 86.5893 268.802 61.5185 326.016C47.0337 359.072 44.9254 395.821 55.4202 432.289L55.1779 432.424C49.679 413.319 47.581 394.187 48.9362 375.563C50.1819 358.434 54.3413 341.702 61.297 325.827C72.2687 300.789 89.8834 278.475 112.239 261.291C132.905 245.405 156.146 235.192 177.678 232.53C213.395 228.188 251.556 233.642 291.099 248.745C326.894 262.417 362.373 283.335 396.555 310.922C459.221 361.58 512.709 432.883 551.238 517.127C553.346 521.739 555.439 526.468 557.459 531.19C573.786 569.342 587.299 610.937 598.771 658.347C600.741 666.474 602.685 674.846 604.564 682.94C613.576 721.753 622.893 761.885 639.632 795.966C640.57 797.876 641.537 799.772 642.512 801.602C687.105 885.383 766.133 876.388 824.668 830.312C886.147 781.494 931.834 700.358 976.018 621.894L976.472 621.088C980.751 613.482 985.176 605.621 989.581 597.858C1036.06 515.967 1087.14 431.808 1155.34 381.546C1174.49 367.465 1194.66 357.125 1215.3 350.813C1234.49 344.943 1254.73 342.365 1275.44 343.153C1311.56 344.524 1350.26 355.893 1393.74 377.908C1439.44 400.962 1473.83 422.153 1505.25 446.622C1550.02 481.555 1593.38 525.699 1631.64 564.646C1716.82 651.828 1800.59 750.039 1880.61 856.546L1880.44 856.808C1800.41 750.313 1716.65 652.112 1631.48 564.938C1593.23 525.998 1549.88 481.862 1505.12 446.939C1473.72 422.478 1439.34 401.294 1393.65 378.247C1299.39 330.527 1223.71 331.675 1155.46 381.864C1087.3 432.092 1036.24 516.215 989.784 598.077C985.38 605.84 980.954 613.704 976.675 621.307L976.222 622.112C954.203 661.213 931.436 701.645 906.85 737.759C879.22 778.344 852.379 808.72 824.794 830.622C795.933 853.337 764.496 865.624 735.555 865.624Z" fill="#A1A1A1"/>
<path d="M1877.68 853.369C1798.69 746.189 1716.23 646.727 1632.58 557.747C1629.03 554.006 1625.48 550.247 1621.92 546.477C1585.68 508.113 1548.22 468.443 1508.15 437.539C1469.28 407.641 1429.89 389.359 1396.47 375.42C1304.25 336.706 1229.56 342.551 1161.42 393.808C1091.47 446.581 1037.27 534.201 993.719 604.607C991.105 608.833 988.496 613.066 985.882 617.303C983.954 620.431 982.022 623.559 980.091 626.684C955.294 666.813 932.738 702.691 907.816 735.429C879.344 772.827 851.902 800.217 823.915 819.165C797.687 836.925 769.669 846.321 743.608 846.325C738.859 846.325 734.181 846.015 729.584 845.384C712.801 843.084 697.263 836.619 683.404 826.169C668.281 814.768 655.127 798.572 644.304 778.03C643.337 776.189 642.373 774.285 641.44 772.371C624.878 738.43 615.191 698.833 605.825 660.542C603.808 652.294 601.72 643.762 599.609 635.482C587.595 588.247 573.741 547.009 557.26 509.411C555.209 504.733 553.085 500.048 550.948 495.479C511.89 412.024 458.006 341.687 395.124 292.071C321.733 234.298 243.839 207.729 175.788 217.253C129.266 223.892 81.6945 262.49 60.1003 311.111C45.3888 344.235 42.78 381.101 52.5503 417.722L52.3054 417.85C47.1896 398.675 45.407 379.486 47.0071 360.814C48.4796 343.623 52.8109 326.836 59.8787 310.917C70.9651 285.952 88.5225 263.638 110.654 246.392C131.122 230.441 154.243 219.962 175.762 216.892C211.437 211.897 249.637 216.706 289.302 231.181C325.183 244.278 360.832 264.656 395.254 291.75C458.176 341.395 512.088 411.772 551.17 495.279C553.309 499.851 555.433 504.54 557.484 509.218C573.976 546.838 587.835 588.097 599.857 635.355C601.968 643.638 604.056 652.167 606.073 660.418C615.434 698.687 625.116 738.258 641.656 772.16C642.589 774.07 643.551 775.97 644.515 777.808C691.068 866.167 770.192 855.13 823.803 818.834C887.765 775.525 936.71 696.325 979.896 626.443C981.827 623.315 983.755 620.187 985.687 617.062C988.298 612.825 990.909 608.592 993.523 604.366C1018.38 564.179 1042.93 525.126 1069.92 489.139C1100.96 447.752 1130.85 416.465 1161.3 393.487C1180.25 379.234 1200.14 368.358 1220.41 361.164C1239.37 354.437 1259.29 350.704 1279.64 350.062C1315.53 348.932 1353.77 357.113 1396.55 375.07C1429.97 389.017 1469.39 407.306 1508.28 437.222C1548.36 468.137 1585.84 507.818 1622.08 546.189C1625.64 549.959 1629.19 553.718 1632.74 557.459C1716.4 646.446 1798.87 745.919 1877.86 853.11L1877.68 853.369Z" fill="#A1A1A1"/>
<path d="M1874.92 849.935C1795.48 740.02 1714.32 639.292 1633.66 550.557C1628.84 545.249 1623.9 539.776 1619.13 534.485C1584.93 496.595 1549.57 457.414 1511.17 428.14C1472.82 399.011 1433.1 383.712 1399.29 372.591C1309.31 342.704 1235.62 353.241 1167.38 405.753C1102.29 456.021 1051.3 531.612 1001.98 604.713L996.564 612.738C992.288 619.078 987.865 625.631 983.505 632.059C934.14 704.74 884.723 772.86 823.034 807.702C808.064 816.157 792.694 822.017 777.344 825.127C760.86 828.463 744.848 828.51 729.751 825.265C713.353 821.74 698.167 814.334 684.616 803.254C669.868 791.196 656.978 774.705 646.308 754.243C645.347 752.391 644.39 750.484 643.465 748.573C627.106 714.832 617.07 675.819 607.365 638.089C605.199 629.67 602.958 620.964 600.696 612.508C588.124 565.419 573.926 524.513 557.289 487.454C555.209 482.824 553.054 478.175 550.883 473.643C511.275 390.927 456.967 321.517 393.826 272.911C319.916 216.185 241.803 190.866 173.87 201.626C127.773 209.082 80.4174 247.949 58.7137 296.147C43.7572 329.356 40.6325 366.364 49.6757 403.171L49.4281 403.291C44.6954 384.033 43.2334 364.77 45.0811 346.044C46.7855 328.78 51.2967 311.927 58.4896 295.958C69.6958 271.077 87.1907 248.784 109.087 231.487C129.352 215.477 152.349 204.747 173.839 201.268C209.472 195.624 247.711 199.784 287.502 213.632C323.471 226.153 359.284 245.988 393.948 272.593C457.125 321.225 511.466 390.68 551.097 473.442C553.268 477.978 555.425 482.631 557.505 487.261C574.153 524.338 588.359 565.266 600.936 612.381C603.198 620.836 605.439 629.546 607.605 637.965C617.305 675.673 627.336 714.668 643.676 748.369C644.599 750.272 645.555 752.176 646.514 754.028C691.946 841.159 767.435 838.712 822.932 807.367C884.572 772.554 933.968 704.459 983.312 631.811C987.672 625.383 992.095 618.831 996.372 612.49L1001.79 604.465C1026 568.584 1051.02 531.477 1078.21 496.96C1109 457.866 1138.12 427.928 1167.25 405.432C1186 391 1205.61 379.588 1225.52 371.516C1244.24 363.924 1263.85 359.031 1283.82 356.971C1319.55 353.285 1357.34 358.28 1399.35 372.234C1433.17 383.362 1472.91 398.664 1511.29 427.819C1549.71 457.104 1585.08 496.296 1619.28 534.197C1624.06 539.488 1628.99 544.957 1633.82 550.269C1714.48 639.012 1795.66 739.746 1875.09 849.672L1874.92 849.935Z" fill="#A1A1A1"/>
<path d="M1872.15 846.5C1793.4 735.363 1713.53 633.375 1634.75 543.371C1628.83 536.607 1622.76 529.574 1616.89 522.774C1584.54 485.292 1551.09 446.534 1514.19 418.747C1476.02 390.118 1436.11 377.922 1402.11 369.769C1314.62 348.472 1241.93 363.706 1173.33 417.704C1113.47 465.027 1064.32 532.093 1016.79 596.95C1011.79 603.776 1006.62 610.831 1001.58 617.667C995.657 625.696 991.135 631.796 986.916 637.44C964.318 667.652 937.413 702.439 909.178 731.375C879.257 762.035 850.791 783.255 822.15 796.25C807.089 803.082 791.783 807.392 776.655 809.055C760.411 810.841 744.683 809.529 729.912 805.15C713.907 800.406 699.076 792.06 685.824 780.345C671.454 767.642 658.833 750.856 648.309 730.459C647.36 728.611 646.409 726.7 645.487 724.782C629.344 691.267 618.972 652.856 608.939 615.709C606.611 607.094 604.206 598.186 601.78 589.534C588.642 542.576 574.097 502.006 557.311 465.497C555.201 460.907 553.014 456.302 550.812 451.806C510.654 369.831 455.918 301.346 392.522 253.75C318.099 198.067 239.767 174.006 171.954 185.995C133.368 192.966 82.9706 225.081 57.363 281.107C42.1381 314.418 38.4843 351.593 46.8004 388.612L46.5528 388.721C42.2032 369.364 41.067 350.018 43.1727 331.219C45.1169 313.867 49.8157 296.942 57.1441 280.91C68.4702 256.131 85.8999 233.875 107.554 216.542C127.616 200.484 150.474 189.51 171.922 185.634C207.514 179.341 245.795 182.852 285.705 196.073C321.761 208.017 357.741 227.312 392.644 253.429C456.077 301.051 510.845 369.576 551.026 451.598C553.228 456.094 555.417 460.706 557.528 465.3C574.322 501.827 588.874 542.419 602.019 589.399C604.448 598.055 606.854 606.962 609.181 615.578C619.207 652.706 629.576 691.096 645.7 724.575C646.623 726.489 647.572 728.396 648.52 730.241C686.317 803.505 751.196 828.051 822.069 795.896C886.252 766.778 938.609 701.517 986.736 637.17C990.955 631.526 995.474 625.426 1001.39 617.397C1006.43 610.561 1011.61 603.506 1016.61 596.68C1040.01 564.751 1064.2 531.736 1090.01 500.821C1119.19 465.858 1146.41 438.564 1173.21 417.38C1191.78 402.759 1211.1 390.811 1230.63 381.87C1249.13 373.401 1268.44 367.352 1288.02 363.884C1323.66 357.576 1360.99 359.381 1402.15 369.401C1436.18 377.561 1476.11 389.761 1514.31 418.415C1551.23 446.22 1584.69 484.989 1617.05 522.482C1622.92 529.282 1628.99 536.316 1634.91 543.079C1713.7 633.094 1793.58 735.09 1872.34 846.234L1872.15 846.5Z" fill="#A1A1A1"/>
<path d="M1869.39 843.066C1791.32 730.7 1712.74 627.447 1635.83 536.181C1629.29 528.418 1622.57 520.269 1616.07 512.39C1585.11 474.857 1553.1 436.048 1517.2 409.348C1479.01 381.061 1439.01 372.037 1404.92 366.94C1321.41 354.117 1247.6 374.63 1179.29 429.649C1124.9 473.658 1078.27 532.531 1033.18 589.469C1024.07 600.969 1014.65 612.862 1005.5 624.198C999.899 631.136 994.937 637.229 990.324 642.822C968.873 668.804 940.339 702.119 909.847 729.344C879.21 756.697 850.232 774.836 821.26 784.794C789.661 795.656 758.125 795.736 730.062 785.031C714.459 779.077 699.98 769.794 687.025 757.437C673.038 744.096 660.685 727.018 650.305 706.684C649.364 704.831 648.42 702.917 647.503 700.999C631.59 667.74 620.895 629.959 610.554 593.425C608.052 584.587 605.467 575.449 602.858 566.571C589.145 519.737 574.253 479.495 557.332 443.552C555.19 439.001 552.972 434.437 550.738 429.981C510.031 348.746 454.87 281.184 391.218 234.605C316.282 179.968 237.731 157.162 170.035 170.379C124.157 179.531 78.3494 217.96 56.0515 266.001C40.5347 299.432 36.3415 336.801 43.9253 374.068L43.6751 374.167C39.7112 354.693 38.9033 335.244 41.2722 316.365C43.4614 298.915 48.3609 281.902 55.8326 265.801C67.2787 241.139 84.6405 218.934 106.042 201.586C125.893 185.496 148.608 174.28 169.999 170.014C205.548 163.072 243.871 165.938 283.904 178.528C320.048 189.896 356.195 208.652 391.338 234.277C455.026 280.885 510.218 348.483 550.952 429.77C553.185 434.225 555.403 438.794 557.548 443.348C574.477 479.313 589.376 519.573 603.098 566.429C605.706 575.307 608.292 584.448 610.794 593.286C621.129 629.802 631.82 667.565 647.717 700.791C648.634 702.709 649.575 704.616 650.516 706.468C687.663 779.259 751.469 808.406 821.198 784.44C884.766 762.589 939.969 703.329 990.152 642.549C994.762 636.955 999.727 630.867 1005.32 623.928C1014.48 612.592 1023.9 600.702 1033 589.203C1078.1 532.254 1124.74 473.366 1179.16 429.339C1197.56 414.511 1216.6 402.03 1235.74 392.237C1254.04 382.873 1273.04 375.665 1292.2 370.812C1327.83 361.788 1364.71 360.406 1404.95 366.583C1439.06 371.684 1479.09 380.711 1517.32 409.031C1553.24 435.749 1585.27 474.573 1616.24 512.12C1622.74 520 1629.46 528.145 1636 535.908C1712.92 627.18 1791.51 730.441 1869.57 842.814L1869.39 843.066Z" fill="#A1A1A1"/>
<path d="M1866.62 839.631C1789.25 726.026 1711.97 621.514 1636.92 528.994C1630.02 520.491 1622.93 511.489 1616.07 502.782C1586.24 464.932 1555.39 425.791 1520.22 399.951C1481.87 371.906 1441.84 366.097 1407.74 364.114C1327.38 359.097 1254.6 384.441 1185.24 441.597C1136.61 481.872 1093.25 532.844 1051.32 582.136C1036.9 599.087 1023.28 615.097 1009.43 630.728C1003.79 637.09 998.661 642.807 993.736 648.2C961.954 682.965 935.513 708.102 910.52 727.302C879.166 751.392 849.68 766.45 820.377 773.334C809.009 776.003 797.683 777.334 786.563 777.334C766.85 777.334 747.776 773.162 730.216 764.9C698.437 749.948 672.225 722.358 652.307 682.896C651.368 681.026 650.433 679.111 649.526 677.201C633.855 644.229 622.86 607.119 612.227 571.227C609.533 562.134 606.749 552.734 603.942 543.593C589.643 496.868 574.402 456.962 557.358 421.591C555.185 417.081 552.936 412.556 550.671 408.141C509.414 327.646 453.825 261.01 389.918 215.441C314.469 161.854 235.702 140.298 168.122 154.744C122.054 164.796 77.5679 202.497 54.7931 250.793C38.961 284.363 34.2127 321.954 41.0563 359.505L40.8035 359.596C37.2306 339.988 36.7563 320.423 39.3962 301.445C41.8408 283.878 46.9461 266.77 54.5768 250.593C66.1428 226.065 83.4291 203.934 104.57 186.585C124.207 170.47 146.763 159.035 168.083 154.383C203.592 146.792 241.956 149.009 282.109 160.972C318.341 171.768 354.652 189.984 390.038 215.112C453.982 260.711 509.601 327.383 550.885 407.925C553.149 412.345 555.398 416.869 557.574 421.383C574.629 456.772 589.877 496.701 604.182 543.444C606.989 552.584 609.775 561.988 612.467 571.081C623.095 606.955 634.085 644.051 649.742 676.993C650.649 678.9 651.582 680.814 652.52 682.681C689.715 756.376 750.88 789.286 820.333 772.969C886.447 757.437 945.007 701.035 993.574 647.908C998.497 642.516 1003.63 636.802 1009.26 630.44C1023.11 614.809 1036.73 598.802 1051.15 581.852C1093.09 532.549 1136.45 481.569 1185.11 441.28C1203.38 426.222 1222.14 413.205 1240.85 402.588C1258.98 392.306 1277.67 383.938 1296.39 377.721C1332.09 365.868 1368.52 361.296 1407.75 363.746C1441.88 365.729 1481.94 371.545 1520.34 399.623C1555.54 425.481 1586.4 464.641 1616.24 502.505C1623.1 511.212 1630.2 520.214 1637.09 528.713C1712.14 621.241 1789.43 725.763 1866.81 839.376L1866.62 839.631Z" fill="#A1A1A1"/>
<path d="M1863.86 836.196C1786.11 719.725 1712.23 616.887 1638.01 521.804C1630.92 512.733 1623.95 503.468 1616.57 493.66C1587.71 455.318 1557.87 415.674 1523.24 390.556C1484.4 362.521 1442.62 360.187 1410.56 361.288C1333.85 363.578 1262.1 393.757 1191.2 453.549C1148.66 489.598 1109.38 532.888 1071.4 574.757C1051.44 596.761 1032.58 617.54 1013.35 637.262C1007.65 643.121 1002.34 648.459 997.145 653.581C964.931 685.288 937.619 708.062 911.188 725.257C879.107 746.127 849.113 758.104 819.492 761.874C804.272 763.81 789.157 763.446 774.565 760.791C759.116 757.98 744.246 752.588 730.368 744.767C699.608 727.43 674.019 698.615 654.309 659.116C653.379 657.242 652.451 655.324 651.549 653.414C636.142 620.781 624.87 584.379 613.969 549.176C611.06 539.783 608.053 530.07 605.027 520.627C590.128 474.004 574.544 434.429 557.382 399.642C555.175 395.172 552.895 390.687 550.604 386.312C508.797 306.557 452.784 240.847 388.621 196.288C329.4 155.331 268.328 133.962 212.326 133.962C196.493 133.962 181.078 135.668 166.21 139.121C120.697 149.899 76.4898 187.734 53.5821 235.513C37.4138 269.239 32.0895 307.086 38.1852 344.958L37.9298 345.038C34.7477 325.276 34.6148 305.576 37.5336 286.489C40.2388 268.794 45.5657 251.574 53.3632 235.308C65.049 210.934 82.2545 188.894 103.124 171.564C122.824 155.204 144.624 143.861 166.163 138.763C201.63 130.523 240.036 132.095 280.311 143.427C316.63 153.643 353.11 171.316 388.736 195.956C452.935 240.541 508.982 306.287 550.815 386.089C553.108 390.465 555.391 394.953 557.599 399.427C574.768 434.232 590.36 473.825 605.267 520.47C608.293 529.913 611.303 539.626 614.211 549.022C625.107 584.211 636.374 620.599 651.768 653.206C652.67 655.113 653.597 657.031 654.525 658.901C691.383 732.76 751.501 770.155 819.471 761.506C888.249 752.752 950.473 699.067 996.999 653.275C1002.2 648.152 1007.5 642.815 1013.2 636.959C1032.43 617.245 1051.28 596.462 1071.24 574.461C1109.23 532.589 1148.51 489.288 1191.07 453.228C1227.57 422.444 1263.39 400.01 1300.58 384.638C1336.45 369.813 1372.42 362.054 1410.56 360.917C1432.31 360.169 1450.06 361.467 1466.42 364.997C1487.54 369.554 1506.16 377.805 1523.37 390.224C1558.03 415.364 1587.88 455.03 1616.75 493.39C1624.13 503.198 1631.11 512.459 1638.19 521.531C1712.41 616.617 1786.3 719.463 1864.06 835.941L1863.86 836.196Z" fill="#A1A1A1"/>
<path d="M1861.1 832.761C1784.05 715.014 1711.44 610.951 1639.09 514.613C1631.93 505.083 1624.88 495.264 1617.4 484.869C1589.41 445.921 1560.46 405.643 1526.26 381.155C1487.1 353.252 1445.36 354.367 1413.37 358.455C1340.99 367.384 1270.26 402.398 1197.15 465.49C1161.13 496.726 1126.84 532.472 1093.67 567.044C1067.45 594.372 1042.68 620.186 1017.28 643.78C1011.54 649.118 1005.91 654.223 1000.55 658.948C968.277 687.402 939.263 708.415 911.855 723.189C879.036 740.88 848.534 749.783 818.605 750.403C803.378 750.717 788.322 748.792 773.866 744.675C758.712 740.358 744.128 733.609 730.519 724.611C700.814 704.969 675.845 674.929 656.307 635.321C655.39 633.451 654.467 631.529 653.568 629.608C638.45 597.373 626.934 561.739 615.795 527.28C612.644 517.53 609.384 507.445 606.108 497.641C590.599 451.106 574.668 411.866 557.405 377.673C555.167 373.243 552.855 368.799 550.533 364.463C508.176 285.449 451.735 220.665 387.318 177.116C310.844 125.633 231.636 106.586 164.292 123.482C119.368 134.949 75.4548 172.883 52.4194 220.118C35.8862 254.023 29.9704 292.154 35.3077 330.394L35.0522 330.464C32.2689 310.53 32.4826 290.677 35.6908 271.459C38.6695 253.618 44.2232 236.274 52.2031 219.91C64.0035 195.711 81.1231 173.78 101.711 156.486C121.184 140.13 142.807 128.594 164.245 123.121C199.672 114.235 238.118 115.154 278.512 125.859C314.92 135.507 351.564 152.64 387.43 176.784C451.887 220.355 508.358 285.179 550.739 364.241C553.064 368.576 555.378 373.025 557.617 377.458C574.89 411.67 590.826 450.927 606.343 497.48C609.621 507.285 612.879 517.37 616.032 527.123C627.166 561.568 638.677 597.187 653.785 629.4C654.684 631.318 655.606 633.239 656.521 635.106C693.768 710.61 751.329 751.431 818.6 750.031C873.185 748.901 930.957 719.856 1000.41 658.631C1005.77 653.905 1011.39 648.805 1017.13 643.467C1042.53 619.876 1067.29 594.069 1093.51 566.742C1126.68 532.166 1160.98 496.412 1197.02 465.169C1233.88 433.357 1269.12 409.278 1304.76 391.547C1340.88 373.586 1376.39 362.637 1413.35 358.079C1445.37 353.985 1487.16 352.873 1526.38 380.82C1560.62 405.336 1589.58 445.633 1617.59 484.599C1625.06 494.994 1632.12 504.809 1639.27 514.336C1711.62 610.677 1784.24 714.748 1861.29 832.502L1861.1 832.761Z" fill="#A1A1A1"/>
<path d="M1858.33 829.326C1782.01 710.299 1710.65 605.004 1640.18 507.427C1633.03 497.521 1625.96 487.228 1618.48 476.329C1591.28 436.685 1563.15 395.692 1529.28 371.759C1489.75 343.958 1448.08 348.534 1416.19 355.625C1348.09 370.483 1280.38 409.19 1203.11 477.438C1174.13 503.15 1145.81 531.356 1118.42 558.633C1085.16 591.761 1053.74 623.056 1021.21 650.31C1015.35 655.225 1009.54 659.943 1003.96 664.326C971.109 690.118 941.199 708.699 912.524 721.125C896.463 728.085 880.607 733.128 865.398 736.114C849.175 739.297 833.134 740.249 817.722 738.943C786.451 736.293 757.163 724.691 730.675 704.462C702.068 682.615 677.721 651.353 658.314 611.538C657.401 609.653 656.487 607.727 655.593 605.817C640.798 574.056 629.076 539.268 617.742 505.629C614.309 495.446 610.763 484.916 607.195 474.67C591.06 428.212 574.783 389.304 557.431 355.72C555.161 351.327 552.816 346.922 550.465 342.631C507.558 264.353 450.693 200.495 386.019 157.963C309.035 107.534 229.611 89.7409 162.378 107.858C90.3899 127.558 20.2412 212.676 32.4378 315.843L32.1798 315.901C29.128 290.094 30.9158 264.67 37.4911 240.328C43.4955 218.098 53.3492 197.177 66.7785 178.151C79.2644 160.461 94.2443 145.187 111.299 132.754C127.519 120.93 145.165 112.194 162.326 107.497C197.712 97.9628 236.199 98.2363 276.716 108.314C313.212 117.389 350.024 133.983 386.129 157.635C450.839 200.196 507.738 264.09 550.671 342.412C553.024 346.707 555.37 351.111 557.642 355.509C575.001 389.107 591.287 428.037 607.429 474.514C610.997 484.759 614.544 495.289 617.976 505.476C629.308 539.104 641.025 573.877 655.812 605.62C656.703 607.531 657.615 609.456 658.527 611.337C695.829 687.854 752.371 733.04 817.737 738.582C873.075 743.268 933.949 718.879 1003.84 664.012C1009.41 659.63 1015.21 654.915 1021.07 650C1053.6 622.753 1085.01 591.462 1118.27 558.337C1145.66 531.057 1173.98 502.847 1202.97 477.132C1280.27 408.855 1348.01 370.133 1416.15 355.264C1437.58 350.499 1455.32 348.975 1471.99 350.473C1493.29 352.388 1512.07 359.242 1529.4 371.431C1563.3 395.39 1591.45 436.408 1618.67 476.074C1626.15 486.969 1633.21 497.262 1640.36 507.164C1710.84 604.749 1782.2 710.048 1858.52 829.082L1858.33 829.326Z" fill="#A1A1A1"/>
<path d="M1855.57 825.892C1779.97 705.567 1709.87 599.047 1641.27 500.237C1634.17 490.014 1627.15 479.305 1619.72 467.962C1593.26 427.56 1565.89 385.779 1532.3 362.36C1491.91 334.325 1448.3 343.473 1419.01 352.793C1339.52 377.776 1268.27 435.858 1209.07 489.387C1187.79 508.704 1166.57 529.166 1146.04 548.953C1104.86 588.648 1065.97 626.141 1025.14 656.841C1019.13 661.359 1013.16 665.686 1007.38 669.708C973.883 692.967 943.077 709.111 913.2 719.058C879.331 730.335 846.914 733.172 816.842 727.484C785.949 721.639 757.011 707.113 730.835 684.307C703.38 660.389 679.656 627.906 660.319 587.758C659.417 585.873 658.507 583.945 657.619 582.027C643.191 550.849 631.323 517.017 619.843 484.297C616.083 473.573 612.192 462.489 608.283 451.701C591.278 404.659 575.128 367.188 557.461 333.767C555.16 329.414 552.785 325.053 550.401 320.798C506.939 243.264 449.646 180.332 384.717 138.807C307.222 89.4351 227.579 72.8928 160.461 92.2317C88.2148 113.324 19.4994 197.287 29.5642 301.292L29.3062 301.339C26.8096 275.536 28.9701 250.137 35.7251 225.85C41.9172 203.598 51.8282 182.655 65.1872 163.608C77.6444 145.844 92.5461 130.457 109.481 117.867C125.605 105.879 143.217 96.8914 160.409 91.8707C195.756 81.6872 234.282 81.3153 274.919 90.7623C311.504 99.265 348.482 115.319 384.827 138.475C449.794 180.022 507.118 242.991 550.601 320.572C552.986 324.831 555.363 329.195 557.667 333.549C575.344 366.983 591.499 404.476 608.512 451.536C612.421 462.325 616.312 473.413 620.073 484.136C631.55 516.845 643.415 550.667 657.833 581.83C658.721 583.748 659.628 585.673 660.53 587.558C698.12 665.599 753.644 715.164 816.873 727.123C873.582 737.85 935.858 718.96 1007.26 669.38C1013.04 665.362 1019.01 661.038 1025.01 656.52C1065.83 625.827 1104.72 588.342 1145.89 548.65C1166.42 528.863 1187.64 508.397 1208.93 489.077C1248.74 453.086 1281.86 426.495 1313.14 405.395C1349.98 380.558 1384.59 363.235 1418.95 352.435C1439.9 345.77 1458.16 342.751 1474.77 343.211C1496.16 343.802 1515.02 349.956 1532.41 362.032C1566.05 385.48 1593.43 427.286 1619.91 467.714C1627.34 479.054 1634.36 489.762 1641.45 499.979C1710.06 598.791 1780.16 705.32 1855.77 825.648L1855.57 825.892Z" fill="#A1A1A1"/>
<path d="M1852.81 822.453C1777.94 700.827 1709.1 593.077 1642.35 493.043C1635.35 482.553 1628.43 471.473 1621.09 459.74C1595.33 418.524 1568.68 375.905 1535.32 352.96C1494.49 324.991 1451 337.85 1421.83 349.959C1349.8 379.606 1285.56 436.054 1215.03 501.331C1202.31 513.148 1189.44 525.344 1177 537.143C1129.14 582.515 1079.65 629.429 1029.06 663.367C1022.92 667.494 1016.77 671.436 1010.79 675.082C977.065 695.617 944.457 709.712 913.869 716.979C879.219 725.212 846.277 724.887 815.953 716.02C785.492 707.113 756.906 689.659 730.986 664.143C704.755 638.322 681.649 604.621 662.312 563.978C661.418 562.089 660.516 560.157 659.633 558.239C645.641 527.79 633.697 495.059 622.147 463.408C617.985 452.003 613.682 440.211 609.358 428.737C591.689 381.742 575.203 344.592 557.476 311.821C555.149 307.519 552.741 303.194 550.322 298.972C506.318 222.167 448.603 160.162 383.414 119.65C305.41 71.3353 225.551 56.0472 158.543 76.6039C88.5897 98.2982 18.6052 179.314 26.6867 286.736L26.4287 286.772C24.4872 260.969 27.0203 235.599 33.9552 211.367C40.3323 189.09 50.3033 168.128 63.5892 149.059C88.1023 113.882 122.691 87.3417 158.486 76.2429C193.791 65.414 232.358 64.3931 273.118 73.2094C309.791 81.1433 346.933 96.6538 383.518 119.314C448.744 159.848 506.493 221.894 550.525 298.735C552.947 302.961 555.355 307.285 557.684 311.591C575.419 344.381 591.913 381.545 609.588 428.558C613.911 440.036 618.217 451.827 622.378 463.232C633.926 494.877 645.867 527.601 659.852 558.035C660.733 559.953 661.634 561.881 662.528 563.77C701.216 645.085 754.287 697.607 816.002 715.659C873.149 732.373 938.646 718.609 1010.68 674.746C1016.66 671.1 1022.8 667.162 1028.94 663.039C1079.51 629.112 1128.99 582.205 1176.84 536.84C1189.29 525.041 1202.15 512.845 1214.88 501.028C1245.75 472.453 1281.68 439.679 1317.33 412.315C1354.63 383.693 1388.78 363.184 1421.75 349.613C1442.51 340.997 1460.76 336.527 1477.56 335.951C1498.74 335.222 1518.2 340.837 1535.43 352.635C1550.37 362.914 1565.42 378.253 1581.41 399.532C1595.54 418.32 1608.63 439.256 1621.28 459.499C1628.61 471.228 1635.54 482.309 1642.54 492.795C1709.29 592.833 1778.13 700.586 1853 822.216L1852.81 822.453Z" fill="#A1A1A1"/>
<path d="M1850.04 819.019C1775.91 696.08 1708.33 587.102 1643.44 485.857C1636.57 475.137 1629.76 463.721 1622.55 451.638C1597.46 409.566 1571.51 366.061 1538.34 343.568C1507.34 322.614 1470.15 323.78 1424.65 347.134C1361.03 379.602 1304.16 433.911 1243.94 491.413C1236.45 498.574 1228.7 505.976 1220.98 513.286C1217.96 516.156 1214.94 519.033 1211.92 521.906C1154.55 576.484 1095.22 632.922 1032.99 669.901C1026.7 673.642 1020.38 677.197 1014.2 680.464C979.737 698.669 946.209 710.256 914.55 714.901C879.099 720.1 845.629 716.622 815.075 704.561C785.089 692.722 756.854 672.34 731.155 643.981C706.246 616.493 683.761 581.578 664.322 540.198C663.435 538.306 662.542 536.37 661.663 534.448C648.203 504.955 636.298 473.544 624.782 443.168C620.119 430.866 615.295 418.145 610.451 405.763C592.098 358.801 575.279 321.972 557.51 289.864C555.149 285.598 552.712 281.318 550.263 277.136C505.701 201.075 447.558 139.992 382.114 100.493C303.605 53.2399 223.524 39.2024 156.628 60.9769C87.9593 83.5134 18.0739 165.193 23.8151 272.184L23.5545 272.214C22.1707 246.407 25.0739 221.066 32.1886 196.896C38.7534 174.593 48.7817 153.606 61.9973 134.522C86.4061 99.2719 120.875 72.3381 156.568 60.6232C191.834 49.1453 230.441 47.4754 271.32 55.6645C308.082 63.0224 345.394 77.9932 382.218 100.158C447.699 139.682 505.878 200.798 550.458 276.899C552.908 281.081 555.35 285.369 557.711 289.635C575.487 321.76 592.317 358.601 610.675 405.581C615.522 417.963 620.344 430.688 625.008 442.99C636.52 473.358 648.424 504.762 661.88 534.244C662.758 536.166 663.649 538.098 664.535 539.99C704.062 624.128 756.14 680.909 815.142 704.2C873.386 727.192 940.327 719.087 1014.11 680.114C1020.28 676.847 1026.6 673.295 1032.89 669.558C1095.1 632.594 1154.41 576.167 1211.77 521.596C1214.79 518.719 1217.81 515.846 1220.83 512.976C1228.55 505.666 1236.3 498.264 1243.8 491.107C1304.02 433.594 1360.91 379.27 1424.56 346.787C1445.11 336.236 1463.36 330.318 1480.35 328.688C1501.61 326.65 1521.15 331.547 1538.45 343.236C1553.31 353.31 1568.16 368.719 1583.86 390.344C1597.72 409.424 1610.44 430.764 1622.75 451.401C1629.96 463.481 1636.76 474.893 1643.63 485.609C1708.53 586.857 1776.11 695.839 1850.25 818.782L1850.04 819.019Z" fill="#A1A1A1"/>
<path d="M1847.28 815.584C1779.62 701.024 1711.4 587.667 1644.52 478.667C1637.71 467.634 1630.97 455.78 1623.82 443.234C1600.59 402.419 1574.26 356.161 1541.36 334.172C1509.99 313.254 1472.74 316.568 1427.46 344.301C1373.62 377.167 1325.98 425.492 1275.54 476.654C1259.75 492.675 1243.41 509.247 1226.93 525.231C1198.18 553.193 1167.07 582.781 1134.46 609.729C1099.53 638.592 1067.63 660.406 1036.91 676.427C1030.46 679.793 1023.97 682.961 1017.6 685.838C982.411 701.746 947.971 710.799 915.241 712.746C879.008 714.897 845.009 708.291 814.184 693.094C757.261 664.683 707.51 605.241 666.316 516.415C665.437 514.519 664.551 512.579 663.678 510.658C650.9 482.466 639.204 452.725 627.894 423.961C622.569 410.423 617.065 396.422 611.527 382.796C592.477 335.845 575.318 299.341 557.529 267.915C555.134 263.685 552.666 259.445 550.187 255.307C505.083 179.978 446.514 119.825 380.813 81.3367C301.796 35.1407 221.499 22.3611 154.712 45.3497C85.6271 69.2645 17.4929 149.862 20.9408 257.633L20.6802 257.647C19.8541 231.833 23.1326 206.522 30.4219 182.414C37.1769 160.082 47.2625 139.073 60.4025 119.974C72.7816 101.981 87.454 86.248 104.011 73.2096C120.085 60.554 137.121 51.0595 154.647 44.9924C189.874 32.8691 228.523 30.5502 269.522 38.1086C306.372 44.9013 343.848 59.3289 380.913 80.9977C446.652 119.508 505.255 179.698 550.385 255.062C552.864 259.204 555.337 263.448 557.732 267.678C575.529 299.122 592.695 335.641 611.754 382.607C617.292 396.236 622.796 410.237 628.12 423.778C639.431 452.539 651.125 482.276 663.897 510.457C664.768 512.382 665.656 514.318 666.532 516.214C707.695 604.971 757.402 664.366 814.27 692.747C872.847 721.625 943.131 719.116 1017.52 685.488C1023.88 682.611 1030.37 679.446 1036.82 676.085C1105.49 640.269 1168.32 581.775 1226.78 524.928C1243.26 508.944 1259.59 492.376 1275.39 476.355C1325.84 425.182 1373.49 376.846 1427.35 343.965C1472.7 316.189 1510.03 312.875 1541.47 333.84C1556.2 343.688 1570.83 359.126 1586.19 381.028C1599.74 400.341 1612.09 422.032 1624.03 443.004C1631.17 455.55 1637.92 467.4 1644.72 478.426C1711.6 587.43 1779.82 700.787 1847.48 815.351L1847.28 815.584Z" fill="#A1A1A1"/>
<path d="M1844.52 812.15C1777.89 696.955 1710.97 582.336 1645.61 471.476C1639.02 460.323 1632.47 448.262 1625.54 435.493C1602.88 393.727 1577.19 346.386 1544.37 324.768C1512.64 303.887 1475.32 309.349 1430.28 341.46C1383.09 375.055 1339.73 422.491 1297.81 468.37C1276.78 491.373 1255.04 515.16 1232.89 537.172C1197.93 571.948 1168.51 598.477 1140.31 620.664C1105.53 648.021 1073 668.395 1040.84 682.95C1034.24 685.94 1027.57 688.718 1021.01 691.209C986.862 704.178 953.327 710.741 921.246 710.744C919.463 710.744 917.691 710.722 915.919 710.682C878.829 709.836 844.303 700.058 813.301 681.623C798.336 672.675 783.682 661.318 769.747 647.864C756.649 635.219 743.777 620.325 731.49 603.596C709.382 573.502 688.715 537.201 668.315 492.627C667.439 490.71 666.566 488.788 665.698 486.859C653.861 460.56 642.663 433.068 631.834 406.481C625.582 391.135 619.119 375.263 612.609 359.815C592.566 312.218 575.587 277.099 557.55 245.951C555.124 241.761 552.624 237.561 550.115 233.463C504.463 158.882 445.469 99.6546 379.513 62.1763C299.991 17.0413 219.475 5.51597 152.797 29.7188C85.0073 54.3956 16.9618 135.605 18.0694 243.074L17.8088 243.077C17.2928 193.02 31.4726 145.42 58.8133 105.426C71.1715 87.349 85.7657 71.5031 102.195 58.3188C118.181 45.4918 135.183 35.7494 152.732 29.3614C187.917 16.5892 226.608 13.6249 267.727 20.5525C304.666 26.7764 342.309 40.6644 379.61 61.8336C445.607 99.3374 504.635 158.601 550.315 233.226C552.825 237.328 555.329 241.532 557.756 245.721C575.8 276.888 592.787 312.018 612.836 359.632C619.346 375.084 625.812 390.956 632.061 406.302C642.89 432.886 654.085 460.374 665.92 486.666C666.788 488.595 667.658 490.516 668.534 492.431C711.884 587.149 759.271 648.925 813.402 681.287C888.377 725.872 967.647 711.102 1020.95 690.858C1027.49 688.368 1034.16 685.594 1040.76 682.604C1114.72 649.125 1182.21 587.138 1232.74 536.877C1254.89 514.872 1276.63 491.085 1297.65 468.086C1339.58 422.199 1382.95 374.749 1430.16 341.139C1450.31 326.77 1468.55 317.946 1485.92 314.169C1507.34 309.509 1527.04 312.966 1544.48 324.444C1559.18 334.124 1573.67 349.686 1588.78 372.014C1602.1 391.689 1614.12 413.846 1625.75 435.278C1632.68 448.043 1639.22 460.101 1645.81 471.247C1711.17 582.106 1778.09 696.725 1844.72 811.92L1844.52 812.15Z" fill="#A1A1A1"/>
<path d="M1841.76 808.715L1646.7 464.29C1640.33 453.042 1634 440.802 1627.3 427.848C1605.2 385.093 1580.15 336.637 1547.39 315.376C1515.72 294.82 1477.26 302.644 1433.09 338.635C1390.63 373.233 1351.9 419.243 1314.45 463.74C1290.03 492.744 1264.79 522.734 1238.85 549.128C1160.89 628.46 1092.75 675.316 1024.43 696.591C996.083 705.414 968.122 709.855 941.005 709.855C932.785 709.855 924.649 709.447 916.599 708.63C878.633 704.78 843.581 691.836 812.42 670.164C783.539 650.074 757.118 621.714 731.656 583.459C711.323 552.912 691.832 516.495 670.319 468.852C658.964 443.708 647.969 417.584 637.336 392.32C613.271 335.149 588.388 276.031 557.581 224.001C510.327 144.199 448.302 81.6176 378.21 43.02C298.184 -1.05035 217.45 -11.3251 150.882 14.0919C86.4326 38.6994 16.4819 116.296 15.1945 228.523L14.9339 228.515C15.5098 178.352 30.1327 130.76 57.2207 90.8824C81.7129 54.8261 114.951 27.4293 150.814 13.7382C185.96 0.320587 224.692 -3.2927 265.928 3.00411C302.956 8.65557 340.766 22.0076 378.307 42.681C412.989 61.7792 445.927 86.9191 476.21 117.404C506.746 148.144 534.191 183.927 557.779 223.761C588.599 275.809 613.49 334.941 637.56 392.127C648.193 417.387 659.188 443.508 670.54 468.647C701.928 538.164 746.435 623.851 812.537 669.828C888.343 722.554 969.573 713.286 1024.37 696.226C1092.66 674.966 1160.76 628.128 1238.69 548.825C1264.62 522.442 1289.86 492.453 1314.28 463.455C1351.74 418.951 1390.48 372.93 1432.96 338.314C1477.21 302.261 1515.75 294.429 1547.5 315.041C1562.17 324.561 1576.53 340.257 1591.4 363.034C1604.48 383.084 1616.19 405.73 1627.51 427.629C1634.21 440.583 1640.54 452.816 1646.9 464.061L1841.96 808.486L1841.76 808.715Z" fill="#A1A1A1"/>
<path d="M1840.18 782.238C1790.52 686.338 1747.9 608.519 1706.07 537.344C1685.77 502.768 1665.03 468.735 1644.43 436.19C1638.21 426.346 1632.03 415.874 1625.5 404.786C1609.08 376.919 1592.1 348.104 1572.57 326.72C1562.08 315.216 1551.98 306.98 1541.69 301.54C1510.13 284.677 1473.09 295.826 1431.61 334.683C1410.15 354.762 1390.6 377.612 1374.31 397.315C1357.07 418.175 1340.06 441.178 1323.6 463.423C1299.96 495.399 1275.51 528.462 1249.22 556.858C1233.23 574.188 1217.02 589.673 1201.03 602.886C1169.06 629.32 1134.73 651.102 1099.02 667.626C1076.95 677.722 1054.78 685.354 1033.12 690.305C1014.45 694.556 995.753 697.01 977.534 697.597C950.266 698.48 923.699 695.114 898.571 687.585C871.853 679.578 846.569 666.799 823.421 649.596C802.781 634.257 783.284 614.944 763.819 590.548C727.548 545.125 698.617 492.603 677.466 451.919C667.075 431.84 656.93 411.364 647.118 391.562C618.865 334.533 592.178 280.669 558.784 232.69C531.547 193.816 500.472 160.268 466.413 132.973C440.239 111.997 411.773 94.8424 381.805 81.9826C374.667 78.9235 367.393 76.0723 360.193 73.5164C329.19 62.5307 294.289 55.377 256.462 52.2523C218.324 49.0292 185.328 51.8184 155.595 60.7878C138.785 65.8195 122.5 73.7133 107.184 84.2469C53.1121 121.437 18.3908 183.869 14.3045 251.256L13.9787 251.216C15.0681 233.252 18.2658 215.557 23.4806 198.618C28.4348 182.527 35.2394 167.01 43.704 152.495C59.6977 125.076 81.5995 101.332 107.04 83.8348C122.38 73.283 138.692 65.3783 155.527 60.3394C185.291 51.3627 218.313 48.5698 256.483 51.7966C294.331 54.9213 329.25 62.0822 360.274 73.0752C367.482 75.6348 374.758 78.486 381.902 81.5487C411.893 94.4158 440.383 111.585 466.577 132.58C500.66 159.892 531.761 193.469 559.01 232.37C592.426 280.378 619.118 334.256 647.381 391.299C657.19 411.101 667.336 431.574 677.724 451.65C698.865 492.315 727.782 544.811 764.033 590.205C783.477 614.576 802.953 633.871 823.57 649.192C868.872 682.856 920.668 698.99 977.523 697.141C995.727 696.554 1014.42 694.101 1033.07 689.853C1054.71 684.901 1076.87 677.277 1098.92 667.189C1134.61 650.676 1168.91 628.908 1200.87 602.489C1216.84 589.286 1233.04 573.808 1249.02 556.493C1275.29 528.112 1299.74 495.056 1323.37 463.091C1339.83 440.843 1356.84 417.832 1374.1 396.965C1390.39 377.251 1409.95 354.394 1431.43 334.3C1449.9 316.999 1467.78 305.047 1484.58 298.772C1505.22 291.065 1524.47 291.852 1541.81 301.113C1552.12 306.571 1562.25 314.83 1572.77 326.359C1592.33 347.776 1609.32 376.609 1625.75 404.495C1632.29 415.579 1638.46 426.05 1644.68 435.888C1665.28 468.436 1686.02 502.473 1706.32 537.056C1748.16 608.239 1790.78 686.065 1840.45 781.972L1840.18 782.238Z" fill="#A1A1A1"/>
<path d="M1838.61 755.753C1792.56 658.23 1749.34 576.623 1706.48 506.272C1685.57 471.907 1663.94 438.874 1642.18 408.09C1636.4 399.922 1630.7 391.434 1624.67 382.45C1606.59 355.546 1587.9 327.726 1566.96 308.478C1556.39 298.718 1546.27 291.921 1536 287.699C1496.67 271.525 1456.72 302.167 1430.13 330.719C1411.29 350.89 1394.09 373.696 1376.66 397.239C1361.41 417.847 1347.05 440.015 1331.86 463.481C1309.31 498.316 1285.99 534.336 1259.6 564.58C1243.94 582.625 1227.6 598.226 1211.03 610.951C1180.16 634.658 1146.35 653.068 1107.68 667.236C1086.04 675.163 1063.88 680.811 1041.81 684.016C1023.19 686.688 1004.6 687.643 986.564 686.845C959.727 685.671 933.493 680.391 908.589 671.156C882.435 661.453 857.478 647.277 834.417 629.021C814.212 613.03 794.702 593.188 774.773 568.365C738.58 523.347 707.575 473.439 684.61 434.987C676.109 420.753 667.743 406.431 659.651 392.576C627.427 337.403 596.99 285.285 559.988 241.379C532.335 208.564 501.288 180.817 467.716 158.912C442.314 142.337 415.391 129.918 385.41 120.945C378.491 118.878 371.452 117.014 364.491 115.406C333.916 108.38 301.285 105.722 261.805 102.973C233.346 100.891 196.092 99.5204 160.302 107.476C143.352 111.173 126.967 117.594 111.599 126.553C57.4909 158.102 20.7864 213.217 13.4112 273.99L13.0255 273.899C14.98 257.783 18.9413 241.977 24.792 226.915C30.3691 212.564 37.6975 198.804 46.5713 186.006C63.4355 161.694 85.8689 140.958 111.448 126.046C126.845 117.069 143.261 110.637 160.239 106.933C196.063 98.9662 233.346 100.341 261.823 102.423C301.316 105.172 333.958 107.83 364.553 114.86C371.52 116.471 378.564 118.334 385.491 120.402C415.5 129.386 442.45 141.815 467.88 158.409C501.486 180.336 532.559 208.105 560.241 240.953C597.269 284.892 627.719 337.024 659.953 392.218C668.043 406.07 676.408 420.392 684.91 434.622C707.869 473.06 738.861 522.949 775.034 567.946C794.94 592.743 814.428 612.563 834.61 628.536C879.956 664.432 931.088 683.862 986.577 686.291C1004.6 687.086 1023.17 686.134 1041.77 683.461C1063.82 680.26 1085.96 674.62 1107.58 666.697C1146.22 652.542 1180 634.148 1210.84 610.463C1227.39 597.752 1243.71 582.173 1259.36 564.146C1285.72 533.928 1309.03 497.922 1331.57 463.106C1346.77 439.628 1361.13 417.457 1376.39 396.838C1393.83 373.28 1411.04 350.467 1429.9 330.275C1447.13 311.763 1464.14 298.448 1480.43 290.689C1500.19 281.282 1518.93 280.097 1536.11 287.163C1546.42 291.404 1556.58 298.222 1567.18 308.012C1588.15 327.296 1606.86 355.141 1624.95 382.067C1630.99 391.048 1636.69 399.532 1642.46 407.696C1664.23 438.491 1685.87 471.535 1706.78 505.911C1749.65 576.281 1792.88 657.902 1838.94 755.446L1838.61 755.753Z" fill="#A1A1A1"/>
<path d="M1837.04 729.266C1793.94 628.798 1751.37 545.693 1706.88 475.203C1685.37 441.05 1662.84 409.019 1639.92 379.992C1635.02 373.786 1629.97 367.202 1625.09 360.835C1604.95 334.532 1584.11 307.336 1561.37 290.24C1550.69 282.16 1540.53 276.8 1530.3 273.858C1491.06 262.558 1453.37 296.387 1428.65 326.752C1411.91 347.25 1396.59 370.483 1381.79 392.954L1379.01 397.161C1365.57 417.547 1352.96 439.905 1339.6 463.579C1318.34 501.276 1296.36 540.253 1269.98 572.302C1254.63 591.087 1238.16 606.805 1221.02 619.019C1191.13 640.316 1157.86 655.513 1116.34 666.845C1094.87 672.705 1072.71 676.365 1050.49 677.722C1031.92 678.812 1013.45 678.265 995.587 676.088C941.51 669.529 890.983 646.77 845.407 608.446C825.705 591.878 806.183 571.514 785.727 546.181C751.11 503.402 720.322 459.43 691.756 418.057C687.925 412.512 684.136 407.002 680.375 401.537C641.359 344.844 604.509 291.293 561.2 250.078C532.927 223.17 501.911 201.227 469.02 184.856C444.871 172.839 418.701 164.679 389.017 159.91C382.327 158.842 375.523 157.963 368.791 157.299C351.857 155.658 333.896 155.392 314.879 155.112C299.604 154.886 283.811 154.652 267.145 153.701C234.957 151.706 198.477 149.449 165.004 154.175C147.733 156.614 131.25 161.558 116.009 168.872C61.9218 194.832 23.2315 242.636 12.5126 296.748L12.0721 296.577C14.8972 282.309 19.6194 268.392 26.106 255.212C32.3086 242.607 40.1582 230.597 49.4359 219.516C67.181 198.325 90.1512 180.605 115.858 168.267C131.132 160.934 147.65 155.979 164.954 153.536C198.461 148.807 234.96 151.068 267.161 153.062C283.816 154.01 299.61 154.247 314.879 154.473C333.903 154.754 351.87 155.02 368.82 156.665C375.557 157.332 382.369 158.211 389.064 159.279C418.784 164.052 444.986 172.223 469.168 184.258C502.099 200.648 533.148 222.615 561.453 249.553C604.801 290.805 641.669 344.381 680.701 401.099C684.462 406.565 688.254 412.07 692.082 417.62C720.642 458.985 751.42 502.946 786.027 545.711C806.461 571.015 825.963 591.36 845.642 607.906C891.158 646.183 941.62 668.909 995.626 675.461C1013.47 677.634 1031.92 678.181 1050.47 677.091C1072.67 675.734 1094.8 672.077 1116.25 666.225C1157.73 654.904 1190.96 639.726 1220.81 618.458C1237.91 606.269 1254.36 590.58 1269.68 571.828C1296.02 539.819 1317.99 500.864 1339.24 463.189C1352.6 439.504 1365.22 417.135 1378.67 396.735L1381.45 392.527C1396.26 370.045 1411.58 346.798 1428.35 326.278C1453.14 295.815 1490.97 261.888 1530.39 273.238C1540.66 276.195 1550.86 281.573 1561.58 289.685C1584.38 306.818 1605.23 334.044 1625.4 360.376C1630.28 366.742 1635.32 373.327 1640.22 379.529C1663.16 408.57 1685.7 440.619 1707.22 474.791C1751.72 545.31 1794.31 628.445 1837.42 728.946L1837.04 729.266Z" fill="#A1A1A1"/>
<path d="M1835.47 702.778C1795.89 600.793 1752.77 513.772 1707.29 444.138C1685.18 410.2 1661.76 379.169 1637.66 351.903C1634.19 347.965 1630.62 343.878 1627.17 339.926C1604.41 313.816 1580.86 286.813 1555.78 272.01C1545.01 265.589 1534.82 261.669 1524.62 260.021C1485.49 253.706 1450.03 290.667 1427.18 322.785C1412.99 342.627 1400.18 364.694 1387.8 386.034C1385.65 389.728 1383.51 393.414 1381.37 397.085C1369.58 417.256 1358.57 439.789 1346.91 463.641C1327.08 504.193 1306.58 546.123 1280.36 580.032C1264.96 599.943 1248.82 615.337 1231 627.1C1193.74 651.7 1156.5 660.804 1124.99 666.47C1103.68 670.299 1081.54 671.976 1059.18 671.443C1040.66 670.951 1022.3 668.898 1004.61 665.347C952.158 654.843 902.293 628.78 856.402 587.882C837.307 570.869 817.774 549.977 796.683 524.013C775.378 497.849 755.524 472.673 736.323 448.324C723.274 431.774 710.947 416.144 698.909 401.147C653.407 344.458 611.727 294.616 562.422 258.789C533.541 237.806 502.557 221.661 470.33 210.806C447.232 203.026 422.542 199.237 392.631 198.876C386.179 198.811 379.606 198.916 373.098 199.193C363.213 199.642 352.987 200.579 342.164 201.574C321.393 203.481 297.847 205.643 272.484 204.433C262.826 203.97 252.972 203.317 243.442 202.683C218.929 201.053 193.582 199.368 169.702 200.874C152.165 201.983 135.58 205.454 120.413 211.193C66.4165 231.629 25.743 272.126 11.6074 319.522L11.1253 319.241C14.826 306.83 20.3092 294.805 27.4213 283.499C34.2519 272.64 42.6228 262.384 52.2966 253.017C70.9382 234.969 94.4427 220.264 120.272 210.489C135.476 204.736 152.098 201.254 169.673 200.145C193.579 198.636 218.937 200.324 243.463 201.954C252.991 202.588 262.844 203.241 272.5 203.704C297.839 204.914 321.367 202.756 342.127 200.849C352.956 199.853 363.185 198.916 373.08 198.468C379.596 198.191 386.173 198.085 392.634 198.151C422.586 198.508 447.313 202.307 470.45 210.099C502.716 220.968 533.742 237.131 562.659 258.144C584.931 274.325 607.5 294.827 631.656 320.816C653.281 344.082 674.318 369.539 699.253 400.604C711.291 415.604 723.618 431.235 736.669 447.784C755.868 472.129 775.722 497.306 797.021 523.467C818.092 549.405 837.604 570.275 856.675 587.27C902.504 628.113 952.299 654.139 1004.68 664.629C1022.35 668.177 1040.69 670.226 1059.18 670.718C1081.52 671.25 1103.63 669.577 1124.92 665.748C1156.39 660.093 1193.58 651 1230.78 626.443C1248.54 614.714 1264.64 599.36 1280 579.5C1306.17 545.649 1326.66 503.752 1346.47 463.233C1358.14 439.366 1369.16 416.822 1380.96 396.63C1383.1 392.958 1385.24 389.272 1387.38 385.582C1399.78 364.227 1412.6 342.146 1426.8 322.278C1441.67 301.383 1456.93 285.307 1472.14 274.5C1490.16 261.699 1507.84 256.587 1524.67 259.307C1534.92 260.962 1545.16 264.9 1555.97 271.346C1581.12 286.189 1604.69 313.225 1627.49 339.368C1630.94 343.32 1634.5 347.407 1637.98 351.341C1662.09 378.629 1685.53 409.69 1707.66 443.653C1731.81 480.629 1755.46 522.756 1777.95 568.864C1797.83 609.617 1817.33 654.558 1835.91 702.435L1835.47 702.778Z" fill="#A1A1A1"/>
<path d="M1833.89 676.282C1797.27 571.372 1754.81 482.816 1707.7 413.07C1684.99 379.347 1660.67 349.318 1635.42 323.81C1634.21 322.595 1633.01 321.381 1631.81 320.164C1605.55 293.605 1578.4 266.143 1550.2 253.779C1539.28 248.988 1529.06 246.505 1518.95 246.184C1479.97 244.952 1446.74 285.001 1425.72 318.811C1413.35 338.591 1402.37 360.271 1391.75 381.236C1389.13 386.42 1386.41 391.78 1383.73 397.001C1373.53 416.887 1364.04 439.497 1353.99 463.437C1335.72 506.982 1316.83 552.008 1290.75 587.754C1275.66 608.435 1259.39 623.946 1241 635.176C1204.78 657.296 1168 663.105 1133.65 666.087C1112.47 667.925 1090.34 667.611 1067.86 665.157C1049.41 663.079 1031.16 659.524 1013.64 654.595C962.969 640.375 913.766 611.009 867.401 567.311C848.832 549.813 829.844 529.008 807.648 501.838C765.463 450.34 734.137 414.069 706.08 384.233C650.275 324.893 607.683 289.981 563.669 267.499C534.201 252.448 503.249 242.104 471.665 236.752C449.753 233.04 426.499 233.372 396.268 237.838C390.073 238.764 383.735 239.855 377.428 241.083C371.471 242.261 365.419 243.61 359.011 245.036C335.35 250.304 308.53 256.277 277.836 255.161C261.657 254.574 245.132 252.966 229.151 251.413C210.989 249.648 192.209 247.821 174.404 247.573C156.553 247.325 139.866 249.323 124.821 253.517C71.0043 268.506 28.3423 301.703 10.7015 342.317L10.2011 341.891C14.7827 331.339 21.0269 321.206 28.7593 311.774C36.2232 302.666 45.11 294.167 55.1748 286.506C74.7258 271.623 98.7698 259.934 124.706 252.711C139.793 248.51 156.516 246.505 174.41 246.753C192.23 247.001 211.02 248.828 229.19 250.596C245.165 252.149 261.683 253.757 277.849 254.344C308.489 255.456 335.28 249.491 358.914 244.23C365.325 242.801 371.382 241.455 377.342 240.274C383.657 239.045 390 237.955 396.2 237.025C426.478 232.555 449.771 232.22 471.73 235.942C503.358 241.302 534.355 251.661 563.864 266.734C607.939 289.245 650.575 324.192 706.429 383.584C734.497 413.431 765.833 449.713 808.028 501.225C830.209 528.374 849.176 549.157 867.724 566.636C914.027 610.273 963.157 639.598 1013.75 653.796C1031.25 658.718 1049.47 662.266 1067.9 664.344C1090.35 666.794 1112.46 667.108 1133.61 665.274C1167.91 662.295 1204.62 656.502 1240.76 634.432C1259.08 623.246 1275.3 607.786 1290.33 587.178C1316.36 551.508 1335.23 506.53 1353.48 463.032C1363.53 439.077 1373.03 416.45 1383.25 396.535C1385.93 391.317 1388.65 385.957 1391.27 380.773C1401.9 359.789 1412.88 338.095 1425.27 318.282C1438.99 296.216 1453.37 278.762 1468.01 266.402C1485.17 251.923 1502.31 244.853 1518.96 245.375C1529.12 245.696 1539.4 248.193 1550.38 253.006C1578.67 265.414 1605.86 292.913 1632.15 319.511C1633.35 320.729 1634.56 321.946 1635.76 323.157C1661.04 348.694 1685.39 378.76 1708.13 412.519C1755.28 482.327 1797.77 570.953 1834.42 675.935L1833.89 676.282Z" fill="#A1A1A1"/>
<path d="M1146.62 665.708C1145.15 665.708 1143.71 665.705 1142.29 665.694C1121.22 665.57 1099.1 663.273 1076.54 658.861C1058.15 655.197 1040.02 650.139 1022.66 643.835C997.846 634.844 972.947 621.922 948.645 605.431C925.177 589.505 901.542 569.757 878.395 546.732C855.714 524.174 834.529 499.038 818.606 479.659C781.349 434.44 745.9 396.644 713.246 367.319C660.357 319.825 613.226 290.871 564.916 276.203C535.772 267.354 504.504 262.687 474.398 262.687C473.932 262.687 473.468 262.687 473.001 262.69C447.138 262.814 422.584 269.538 399.905 276.786C394.002 278.686 387.896 280.76 381.756 282.959C378.392 284.177 375.022 285.431 371.457 286.758C346.311 296.132 317.808 306.753 283.18 305.882C262.092 305.35 240.552 302.294 219.721 299.337C206.271 297.427 192.365 295.454 179.1 294.262C160.865 292.625 144.084 293.15 129.219 295.83C75.6895 305.47 31.039 331.372 9.77572 365.12L9.28577 364.519C20.1923 347.21 36.5978 332.225 58.0461 319.974C78.5302 308.277 103.114 299.614 129.136 294.929C144.04 292.246 160.865 291.713 179.142 293.358C192.42 294.55 206.334 296.526 219.789 298.437C240.607 301.394 262.133 304.449 283.193 304.978C317.732 305.849 346.186 295.243 371.29 285.887C374.858 284.556 378.228 283.302 381.595 282.084C387.74 279.885 393.851 277.807 399.759 275.907C422.477 268.648 447.073 261.914 472.999 261.786C503.584 261.637 535.413 266.318 565.055 275.32C589.987 282.893 614.159 294.039 638.946 309.397C662.818 324.189 687.237 342.886 713.595 366.56C746.276 395.908 781.75 433.732 819.03 478.981C834.941 498.349 856.11 523.467 878.768 545.999C925.738 592.721 974.203 625.342 1022.82 642.964C1040.16 649.261 1058.26 654.31 1076.63 657.971C1099.16 662.376 1121.25 664.673 1142.29 664.793C1175.22 664.983 1213.45 663.429 1250.74 642.41C1269.61 631.77 1285.94 616.212 1300.66 594.85C1326.5 557.332 1343.64 509.177 1360.21 462.606C1368.73 438.651 1376.78 416.023 1385.54 396.436C1388.34 390.162 1391.17 383.697 1393.91 377.444C1403.15 356.318 1412.71 334.478 1423.73 314.29C1436.31 291.064 1449.82 272.225 1463.87 258.297C1480.16 242.148 1496.77 233.113 1513.23 231.443C1523.39 230.411 1533.7 231.465 1544.76 234.666C1574.32 243.22 1603.61 268.072 1633.52 294.969C1659.59 318.421 1685.55 348.301 1708.57 381.382C1734.15 418.021 1758.18 461.005 1779.99 509.137C1799.43 552.019 1817.23 599.222 1832.91 649.436L1832.31 649.8C1798.65 541.963 1756.86 451.868 1708.11 382.02C1685.12 348.986 1659.2 319.15 1633.17 295.739C1603.31 268.889 1574.07 244.084 1544.63 235.56C1533.63 232.377 1523.38 231.33 1513.28 232.355C1483.03 235.428 1451.41 264.721 1424.24 314.844C1413.25 334.996 1403.7 356.818 1394.46 377.922C1391.73 384.178 1388.89 390.646 1386.09 396.921C1377.35 416.472 1369.31 439.081 1360.79 463.014C1352.66 485.864 1344.25 509.495 1334.6 532.21C1323.67 557.962 1312.72 578.658 1301.13 595.484C1286.35 616.942 1269.95 632.569 1250.99 643.259C1234.26 652.688 1216.29 658.919 1196.04 662.317C1178.88 665.18 1161.66 665.708 1146.62 665.708Z" fill="#A1A1A1"/>
<path d="M1278.01 782.072C1264.72 782.072 1251.95 780.963 1240.53 779.84C1219.54 777.777 1197.42 773.493 1174.81 767.105C1156.5 761.858 1138.48 755.302 1121.27 747.612C1074.12 726.6 1027.58 691.623 978.98 640.691C957.784 618.482 937.803 594.586 919.159 572.016C882.35 527.589 845.63 491.565 810.013 464.941C757.63 425.786 708.619 404.97 655.772 399.436C625.661 396.282 593.909 397.569 563.944 403.155C538.862 407.829 515.217 419.11 493.143 430.26C487.621 433.064 481.747 436.126 475.688 439.36C474.173 440.173 472.646 441.001 471.098 441.836C445.676 455.589 416.909 471.151 379.991 471.151C379.368 471.151 378.748 471.147 378.12 471.136C353.143 470.782 327.642 465.795 302.978 460.967C293.2 459.053 283.088 457.077 273.386 455.476C254.434 452.355 238.021 451.433 223.205 452.665C169.318 457.15 123.834 475.293 98.4191 502.452L97.9838 501.654C110.548 488.229 128.715 476.572 150.515 467.946C171.958 459.461 197.079 453.832 223.161 451.662C238.018 450.426 254.473 451.349 273.466 454.477C283.179 456.078 293.294 458.058 303.074 459.968C327.715 464.788 353.193 469.772 378.123 470.126C415.81 470.666 445.045 454.845 470.835 440.892C472.38 440.057 473.91 439.229 475.424 438.412C481.489 435.175 487.366 432.112 492.893 429.308C515.003 418.136 538.693 406.841 563.842 402.152C593.854 396.559 625.659 395.268 655.819 398.426C682.008 401.167 706.977 407.643 732.152 418.217C758.081 429.107 783.657 444.097 810.344 464.048C846.006 490.708 882.773 526.776 919.62 571.247C938.257 593.809 958.225 617.691 979.402 639.878C1027.94 690.741 1074.41 725.667 1121.48 746.646C1138.67 754.321 1156.66 760.87 1174.94 766.109C1197.53 772.49 1219.61 776.77 1240.58 778.827C1275.86 782.291 1313.39 784.07 1350.31 764.902C1369.74 754.814 1386.18 739.157 1400.58 717.036C1426.21 677.633 1442.17 623.886 1456.25 576.465C1463.34 552.605 1470.03 530.068 1477.41 510.857C1480.08 503.925 1482.76 496.761 1485.35 489.833C1493.46 468.157 1501.85 445.745 1511.77 424.812C1523.26 400.427 1535.89 380.202 1549.32 364.699C1564.75 346.895 1580.82 335.899 1597.09 332.023C1607.26 329.598 1617.61 329.212 1628.73 330.831C1659.81 335.363 1691.38 357.757 1720.87 381.285C1748.1 403.009 1774.99 431.871 1798.62 464.752C1824.91 501.22 1849.13 544.634 1870.61 593.78C1889.81 637.73 1906.77 686.063 1921 737.444L1920.33 737.804C1890.08 628.589 1847.82 534.414 1798.11 465.459C1774.53 432.641 1747.7 403.833 1720.52 382.153C1691.1 358.679 1659.61 336.34 1628.66 331.826C1617.6 330.214 1607.32 330.601 1597.21 333.007C1567.18 340.165 1537.05 372.961 1512.38 425.359C1502.47 446.248 1494.09 468.639 1485.99 490.293C1483.4 497.224 1480.71 504.388 1478.05 511.327C1470.68 530.495 1464 553.009 1456.92 576.844C1442.81 624.338 1426.83 678.172 1401.11 717.707C1386.64 739.948 1370.1 755.692 1350.56 765.839C1333.61 774.641 1315.32 779.738 1294.65 781.412C1289.05 781.886 1283.49 782.072 1278.01 782.072Z" fill="#A1A1A1"/>
<path d="M1214.64 671.483C1214.45 671.483 1214.26 671.483 1214.07 671.483C1195.29 671.418 1176.85 668.202 1159.57 664.913C1138.61 660.924 1116.51 654.649 1093.88 646.271C1075.65 639.449 1057.75 631.387 1040.68 622.316C995.423 598.299 950.84 561.207 900.373 505.579C882.198 485.551 864.312 463.984 847.013 443.132C844.85 440.521 842.684 437.914 840.518 435.307C803.519 390.891 765.525 356.636 727.593 333.497C675.651 301.816 623.265 288.763 567.442 293.594C536.833 296.245 505.109 303.49 475.699 314.545C452.494 323.27 431.818 337.268 407.195 354.659C402.204 358.2 396.875 362.021 390.427 366.688L390.068 366.95C377.629 376.015 363.53 386.286 347.716 394.096C329.554 403.065 311.934 407.382 293.866 407.331C265.691 407.232 236.938 399.897 209.133 392.798C202.321 391.058 195.274 389.261 188.472 387.635C168.965 382.979 152.453 380.627 137.992 380.448C84.7435 379.792 37.3071 390.832 7.84766 410.733L7.50885 409.748C21.9389 399.999 41.4039 392.087 63.7982 386.865C86.2342 381.633 111.894 379.037 137.999 379.358C152.502 379.537 169.056 381.892 188.605 386.559C195.412 388.185 202.459 389.983 209.274 391.722C237.045 398.81 265.761 406.139 293.868 406.237C293.993 406.237 294.121 406.237 294.246 406.237C334.451 406.237 365.08 383.923 389.708 365.981L390.07 365.718C396.52 361.047 401.85 357.226 406.843 353.686C431.507 336.265 452.221 322.242 475.499 313.491C504.958 302.414 536.734 295.159 567.395 292.504C594.713 290.142 620.479 291.943 646.173 298.017C673.86 304.562 700.596 315.839 727.906 332.498C765.911 355.68 803.97 389.99 841.029 434.48C843.195 437.087 845.36 439.697 847.524 442.308C864.815 463.153 882.696 484.712 900.855 504.726C951.257 560.285 995.775 597.326 1040.96 621.302C1058 630.363 1075.88 638.41 1094.08 645.224C1116.67 653.592 1138.75 659.856 1159.68 663.838C1197.17 670.977 1233.88 675.928 1270.7 658.368C1290.69 648.838 1307.24 633.083 1321.31 610.2C1346.72 568.864 1360.6 511.587 1372.85 461.049C1378.58 437.389 1383.99 415.039 1390.1 396.258C1392.45 389.031 1394.81 381.557 1397.09 374.326C1404.22 351.721 1411.6 328.349 1420.64 306.312C1431.04 280.757 1442.8 259.143 1455.59 242.072C1470.17 222.616 1485.7 209.665 1501.76 203.583C1511.71 199.813 1521.88 197.976 1532.8 197.976C1533.03 197.976 1533.27 197.976 1533.51 197.979C1567.46 198.227 1602.39 219.805 1629.04 238.575C1657.42 258.574 1685.23 286.415 1709.47 319.092C1736.48 355.392 1760.89 399.233 1782.03 449.4C1801 494.418 1817.11 543.885 1829.9 596.432L1829.16 596.786C1810.12 518.599 1773.81 407.094 1708.93 319.883C1684.75 287.279 1657 259.503 1628.68 239.552C1602.12 220.833 1567.29 199.317 1533.51 199.073C1522.38 198.982 1512.07 200.812 1501.96 204.641C1472.21 215.911 1443.57 252.211 1421.31 306.855C1412.29 328.841 1404.93 352.187 1397.81 374.768C1395.53 382.001 1393.16 389.48 1390.81 396.71C1384.72 415.443 1379.31 437.765 1373.59 461.399C1361.32 512.029 1347.41 569.415 1321.9 610.911C1307.74 633.947 1291.08 649.807 1270.96 659.4C1253.9 667.527 1235.47 671.483 1214.64 671.483Z" fill="#A1A1A1"/>
<path d="M1235.49 676.618C1231.45 676.618 1227.32 676.435 1223.08 676.071C1204.56 674.477 1186.56 669.697 1168.21 664.52C1146.94 658.518 1125.46 650.49 1102.54 639.974C1084.41 631.581 1066.63 622.021 1049.69 611.553C1006.72 585.038 964.063 546.007 911.365 485.001C898.277 469.851 885.194 453.961 872.542 438.593C865.654 430.229 858.534 421.577 851.479 413.129C814.04 368.413 774.776 335.933 734.777 316.587C681.928 291.024 627.611 286.343 568.718 302.276C537.604 310.695 505.909 323.898 477.062 340.455C453.888 353.756 433.701 372.434 412.328 392.211L410.851 393.578C407.512 396.677 404.137 399.82 400.721 403C398.753 404.834 396.772 406.679 394.774 408.538C382.311 420.195 368.851 432.354 353.415 441.714C335.492 452.579 317.766 457.925 299.215 458.056C268.333 458.267 236.833 448.226 206.373 438.505C202.026 437.116 197.527 435.683 193.162 434.323C172.696 427.943 156.562 424.271 142.38 422.762C90.0436 417.194 40.6526 421.117 6.86696 433.529L6.65063 432.384C40.5249 419.939 90.0175 416.002 142.445 421.58C156.666 423.093 172.842 426.776 193.347 433.168C197.715 434.531 202.213 435.964 206.563 437.353C236.65 446.953 267.752 456.874 298.225 456.874C298.553 456.874 298.882 456.874 299.213 456.871C338.628 456.594 366.685 433.383 394.307 407.554C396.306 405.694 398.287 403.849 400.254 402.015C403.671 398.832 407.043 395.693 410.384 392.59L411.862 391.223C433.271 371.414 453.492 352.702 476.741 339.357C505.64 322.767 537.39 309.543 568.56 301.11C627.601 285.136 682.063 289.832 735.056 315.464C775.154 334.861 814.509 367.414 852.031 412.228C859.086 420.68 866.209 429.328 873.097 437.696C885.744 453.061 898.824 468.947 911.904 484.085C964.54 545.023 1007.14 583.999 1050.03 610.47C1066.95 620.92 1084.7 630.469 1102.81 638.848C1125.69 649.348 1147.14 657.366 1168.38 663.357C1200.62 672.454 1240.74 683.779 1280.69 666.336C1301.23 657.37 1317.9 641.517 1331.63 617.868C1356.8 574.552 1368.47 513.63 1378.76 459.883C1383.23 436.533 1387.46 414.478 1392.39 396.174C1394.31 389.042 1396.24 381.666 1398.1 374.531C1404.34 350.602 1410.8 325.859 1419.09 302.327C1428.45 275.583 1439.33 252.58 1451.45 233.956C1465.18 212.852 1480.17 197.95 1496.02 189.663C1506.19 184.343 1516.61 181.065 1527.88 179.64C1542.97 177.729 1559.04 179.771 1577 185.867C1592.19 191.03 1608.48 199.044 1626.79 210.373C1656.33 228.643 1685.08 255.468 1709.92 287.943C1737.65 324.073 1762.25 368.347 1783.05 419.531C1801.78 465.621 1817.04 516.222 1828.4 569.933L1827.59 570.268C1803.6 456.874 1761.6 356.917 1709.35 288.811C1684.57 256.423 1655.9 229.675 1626.45 211.459C1586.99 187.052 1555.69 177.314 1527.96 180.821C1516.76 182.236 1506.41 185.492 1496.31 190.771C1458.61 210.486 1433.92 262.603 1419.85 302.849C1411.58 326.322 1405.13 351.036 1398.89 374.936C1397.03 382.075 1395.1 389.454 1393.18 396.59C1388.27 414.839 1384.05 436.868 1379.58 460.189C1369.26 514.053 1357.57 575.103 1332.29 618.615C1318.44 642.45 1301.65 658.431 1280.94 667.469C1266.91 673.595 1251.94 676.618 1235.49 676.618Z" fill="#A1A1A1"/>
<path d="M1253.57 682.502C1226.01 682.502 1199.51 672.595 1176.84 664.122C1155.52 656.151 1134.05 646.19 1111.21 633.673C1093.18 623.719 1075.51 612.657 1058.7 600.789C1008.31 565.254 963.388 514.249 922.353 464.421C913.974 454.249 905.509 443.763 897.326 433.623C885.964 419.542 874.213 404.983 862.438 390.952C824.438 345.796 783.906 315.084 741.968 299.672C687.717 279.739 631.464 283.425 569.996 310.946C538.347 325.115 506.683 344.275 478.425 366.356C456.63 383.383 438.189 404.881 418.667 427.64C417.283 429.251 415.897 430.87 414.502 432.489L413.747 433.371C409.001 438.91 404.094 444.634 399.118 450.38C387.198 464.21 374.071 478.514 358.888 489.441C341.263 502.126 323.494 508.452 304.561 508.78C271.328 509.36 237.456 496.288 204.703 483.647C202.407 482.761 200.121 481.879 197.846 481.007C176.246 472.716 160.49 467.801 146.761 465.067C95.7385 454.909 44.3877 451.715 5.87455 456.305L5.79639 455.033C44.372 450.431 95.7984 453.629 146.889 463.802C160.657 466.543 176.447 471.469 198.086 479.775C200.361 480.647 202.646 481.529 204.945 482.419C237.636 495.034 271.443 508.072 304.548 507.504C345.665 506.789 374.621 477.135 398.535 449.396C403.51 443.65 408.417 437.925 413.163 432.39L413.919 431.508C415.313 429.886 416.699 428.27 418.083 426.659C437.639 403.86 456.112 382.326 477.979 365.24C506.29 343.119 538.014 323.926 569.717 309.732C598.859 296.686 626.231 289.153 653.394 286.703C683.695 283.972 713.572 287.921 742.197 298.44C784.268 313.9 824.921 344.698 863.027 389.979C874.809 404.016 886.563 418.579 897.928 432.664C906.111 442.804 914.571 453.286 922.947 463.455C963.941 513.228 1008.81 564.179 1059.11 599.648C1075.89 611.498 1093.53 622.545 1111.54 632.485C1134.34 644.983 1155.78 654.93 1177.07 662.889C1209.77 675.111 1250.46 690.323 1290.67 674.316C1311.77 665.916 1328.54 649.964 1341.95 625.55C1366.85 580.196 1376.17 515.525 1384.4 458.464C1387.7 435.537 1390.82 413.883 1394.67 396.101C1396.09 389.523 1397.52 382.727 1398.9 376.153C1404.3 350.441 1409.89 323.85 1417.54 298.353C1425.85 270.398 1435.86 245.998 1447.29 225.839C1460.18 203.091 1474.64 186.239 1490.26 175.749C1500.41 168.938 1510.87 164.216 1522.24 161.31C1537.55 157.398 1554.54 157.529 1572.74 161.7C1588.68 165.354 1606.1 172.241 1624.54 182.177C1655.22 198.719 1684.9 224.523 1710.36 256.798C1738.81 292.759 1763.6 337.461 1784.06 389.665C1802.54 436.828 1816.95 488.566 1826.89 543.44L1826.01 543.753C1804.95 427.479 1763.67 325.906 1709.75 257.746C1684.37 225.576 1654.79 199.857 1624.21 183.369C1584.56 161.999 1551.26 155.192 1522.4 162.568C1511.11 165.452 1500.73 170.141 1490.66 176.901C1453.48 201.859 1430.83 256.988 1418.38 298.845C1410.75 324.276 1405.17 350.831 1399.77 376.51C1398.39 383.084 1396.96 389.884 1395.54 396.469C1391.71 414.193 1388.59 435.818 1385.29 458.715C1381.33 486.167 1376.85 517.279 1370.34 546.448C1362.89 579.868 1353.84 605.996 1342.67 626.326C1336.22 638.081 1328.8 648.086 1320.63 656.064C1311.83 664.643 1301.84 671.199 1290.92 675.545C1278.43 680.522 1265.89 682.502 1253.57 682.502Z" fill="#A1A1A1"/>
<path d="M1269.85 688.959C1260.74 688.959 1251.2 687.719 1241.11 685.244C1221.26 680.369 1202.25 671.523 1185.47 663.724C1164.33 653.891 1142.26 641.658 1119.87 627.369C1101.95 615.869 1084.4 603.305 1067.71 590.019C1019.79 551.928 978.504 501.28 933.34 443.839C929.326 438.735 925.25 433.528 921.31 428.489C905.791 408.658 889.745 388.152 873.397 368.777C834.766 323.091 792.967 294.152 749.158 282.762C693.898 268.393 634.046 280.789 571.273 319.613C539.061 339.535 507.426 364.65 479.788 392.247C458.978 413.026 441.848 437.524 423.712 463.463C421.87 466.099 420.019 468.742 418.159 471.396C413.527 478.01 408.539 485.109 403.465 492.216C392.825 507.168 379.857 524.207 364.363 537.161C347.02 551.665 329.207 558.976 309.911 559.504C274.588 560.478 238.631 544.114 203.858 528.29L202.534 527.689C185.508 519.944 167.498 512.12 151.147 507.369C101.308 492.89 49.3652 482.838 4.89191 479.064L4.95184 477.701C49.472 481.478 101.461 491.537 151.345 506.031C167.743 510.796 185.785 518.632 202.836 526.387L204.16 526.988C238.858 542.776 274.742 559.1 309.893 558.133C350.488 557.018 378.525 525.326 402.775 491.242C407.849 484.14 412.832 477.041 417.463 470.43C419.323 467.779 421.174 465.132 423.016 462.5C441.184 436.518 458.345 411.976 479.222 391.128C506.912 363.476 538.608 338.314 570.879 318.355C600.331 300.143 629.313 287.593 657.016 281.059C688.67 273.596 719.732 273.712 749.341 281.409C793.316 292.843 835.269 321.885 874.03 367.727C890.391 387.121 906.445 407.633 921.972 427.476C925.912 432.511 929.988 437.717 934.002 442.822C979.121 500.208 1020.36 550.801 1068.19 588.826C1084.86 602.091 1102.39 614.637 1120.28 626.122C1142.64 640.389 1164.68 652.604 1185.79 662.423C1218.88 677.817 1260.06 696.97 1300.67 682.294C1322.33 674.466 1339.21 658.419 1352.28 633.232C1376.91 585.778 1384.04 514.253 1389.77 456.779C1392 434.392 1394.1 413.248 1396.96 396.039C1397.86 390.613 1398.77 385.024 1399.65 379.617C1404.21 351.527 1408.93 322.479 1416 294.389C1426.93 250.676 1447.69 192.2 1484.52 161.854C1494.7 153.475 1505.19 147.306 1516.61 142.996C1546.47 131.558 1582.03 135.259 1622.29 153.989C1654.14 168.803 1684.75 193.586 1710.82 225.66C1739.98 261.45 1764.97 306.582 1785.08 359.811C1794.31 384.226 1802.47 410.302 1809.33 437.316C1815.88 463.12 1821.28 489.915 1825.39 516.958L1824.44 517.242C1806.33 398.081 1765.75 294.892 1710.17 226.685C1684.2 194.73 1653.7 170.043 1621.98 155.283C1581.91 136.637 1546.54 132.947 1516.86 144.312C1505.53 148.589 1495.12 154.711 1485.02 163.028C1448.43 193.163 1427.8 251.34 1416.92 294.838C1409.86 322.854 1405.16 351.863 1400.6 379.916C1399.72 385.323 1398.81 390.916 1397.91 396.345C1395.06 413.496 1392.96 434.611 1390.73 456.965C1387.85 485.886 1384.59 518.664 1379 549.602C1372.59 585.151 1364.11 612.77 1353.07 634.034C1346.77 646.165 1339.41 656.396 1331.18 664.439C1322.32 673.106 1312.14 679.56 1300.91 683.614C1291.05 687.18 1280.76 688.959 1269.85 688.959Z" fill="#A1A1A1"/>
<path d="M1284.86 695.778C1273.94 695.778 1262.43 693.798 1250.13 689.827C1230.2 683.399 1211.02 672.731 1194.1 663.316C1172.8 651.467 1150.74 637.25 1128.53 621.058C1110.73 608.023 1093.3 593.957 1076.71 579.245C1031.07 538.791 991.93 486.652 950.487 431.457C948.436 428.726 946.385 425.992 944.329 423.257C925.057 397.618 905.13 371.103 884.357 346.602C845.054 300.336 801.988 273.166 756.355 265.844C699.037 256.645 637.196 277.65 572.549 328.269C540.212 353.588 507.753 385.502 481.15 418.131C461.062 442.768 444.951 470.489 427.894 499.84C425.874 503.315 423.849 506.8 421.809 510.293C417.733 517.283 412.883 525.571 407.806 534.048C398.403 549.788 385.592 569.79 369.835 584.838C352.768 601.14 334.916 609.449 315.258 610.233C299.1 610.798 281.269 607.309 260.743 599.561C243.121 592.91 226.074 584.218 207.211 574.374C189.993 565.277 171.82 555.881 155.516 549.675C107.223 531.291 56.2106 515.194 3.90076 501.82L4.08839 500.387C56.4295 513.764 107.47 529.877 155.79 548.267C172.138 554.491 190.337 563.902 207.576 573.006C239.193 589.512 278.543 610.062 315.229 608.774C357.172 607.097 384.127 571.417 407.006 533.107C412.08 524.637 416.928 516.353 421.001 509.367C423.042 505.874 425.066 502.389 427.084 498.918C444.169 469.519 460.309 441.75 480.462 417.033C507.12 384.339 539.642 352.363 572.041 326.997C636.883 276.225 698.938 255.165 756.475 264.397C778.536 267.937 800.206 276.159 820.877 288.833C843.058 302.429 864.642 321.495 885.029 345.49C905.826 370.017 925.766 396.546 945.048 422.204C947.104 424.942 949.158 427.673 951.209 430.404C992.612 485.551 1031.72 537.639 1077.27 578.016C1093.83 592.706 1111.24 606.755 1129.02 619.767C1151.19 635.934 1173.22 650.132 1194.49 661.964C1227.92 680.559 1269.52 703.701 1310.65 690.279C1332.93 683.009 1349.93 666.864 1362.6 640.926C1387.01 591.383 1391.36 515.7 1394.85 454.891C1396.1 433.142 1397.28 412.6 1399.24 395.988C1399.65 392.561 1400.05 389.115 1400.45 385.651C1404.11 354.364 1407.89 322.009 1414.46 290.434C1423.83 245.018 1442.6 183.435 1478.77 147.966C1488.87 138.07 1499.39 130.457 1510.97 124.689C1527.05 116.599 1544.97 112.796 1564.23 113.379C1581.82 113.911 1600.59 118.093 1620.04 125.805C1653.03 138.883 1684.57 162.645 1711.26 194.519C1741.14 230.134 1766.32 275.703 1786.1 329.954C1795.17 354.846 1803.03 381.458 1809.45 409.052C1815.6 435.479 1820.46 462.876 1823.88 490.48L1822.86 490.728C1807.93 370.44 1767.01 262.88 1710.58 195.628C1684.01 163.892 1652.6 140.229 1619.75 127.201C1579.25 111.137 1541.75 110.743 1511.31 126.057C1499.83 131.781 1489.38 139.336 1479.37 149.155C1443.45 184.38 1424.78 245.645 1415.45 290.835C1408.9 322.326 1405.13 354.634 1401.48 385.881C1401.08 389.345 1400.67 392.794 1400.27 396.221C1398.32 412.771 1397.14 433.288 1395.89 455.004C1392.38 515.989 1388.02 591.889 1363.46 641.75C1357.35 654.252 1350.04 664.717 1341.75 672.844C1332.82 681.587 1322.44 687.931 1310.89 691.701C1302.55 694.414 1293.91 695.778 1284.86 695.778Z" fill="#A1A1A1"/>
<path d="M1298.97 702.877C1286.53 702.877 1273.35 700.062 1259.14 694.411C1239.04 686.415 1219.75 673.927 1202.73 662.912C1181.21 648.991 1159.16 632.784 1137.19 614.751C1119.52 600.203 1102.2 584.63 1085.71 568.475C1045.12 528.703 1010.42 479.98 973.687 428.395C967.683 419.962 961.473 411.244 955.312 402.672C933.655 372.555 915.162 347.721 895.311 324.427C855.307 277.549 810.977 252.146 763.549 248.923C703.952 244.872 640.116 274.479 573.816 336.918C540.88 367.939 508.45 405.968 482.501 444.004C462.952 472.659 447.67 503.851 431.491 536.874C429.487 540.965 427.475 545.07 425.45 549.179C421.843 556.512 417.069 566.174 412.141 575.862C391.401 616.727 364.306 658.799 320.599 660.951C319.236 661.013 317.867 661.042 316.502 661.042C282.372 661.042 247.528 642.144 211.882 621.044L209.656 619.717C192 609.172 175.321 599.215 159.882 591.966C101.701 564.65 45.4323 541.592 2.91101 524.557L3.21594 523.066C45.7477 540.108 102.032 563.169 160.234 590.497C175.714 597.764 192.412 607.736 210.092 618.291L212.315 619.618C249.267 641.491 285.354 661.002 320.559 659.405C363.782 657.275 390.651 615.527 411.237 574.968C416.162 565.288 420.931 555.633 424.538 548.304C426.563 544.192 428.572 540.09 430.576 535.999C446.781 502.925 462.087 471.682 481.698 442.936C507.699 404.819 540.195 366.714 573.196 335.631C603.826 306.783 634.466 284.633 664.264 269.79C698.453 252.759 731.877 245.219 763.601 247.374C811.275 250.611 855.829 276.138 896.02 323.234C915.9 346.566 934.411 371.425 956.088 401.567C962.252 410.139 968.462 418.861 974.469 427.294C1011.17 478.828 1045.83 527.503 1086.34 567.195C1102.81 583.332 1120.1 598.879 1137.74 613.405C1159.69 631.417 1181.71 647.599 1203.19 661.497C1236.9 683.319 1278.87 710.476 1320.63 698.25C1343.46 691.567 1360.56 675.327 1372.91 648.605C1397.02 596.805 1398.47 516.864 1399.63 452.631C1400.01 431.673 1400.37 411.875 1401.52 395.923L1401.55 395.558C1404.12 359.837 1406.79 322.902 1412.9 286.46C1418.19 254.673 1425.57 226.095 1434.81 201.513C1445.23 173.799 1458.09 151.106 1473.02 134.06C1483 122.655 1493.57 113.595 1505.31 106.364C1537.05 86.7155 1575.94 83.6819 1617.77 97.5991C1634.61 103.199 1651.22 111.684 1667.14 122.812C1683.16 134.005 1698.15 147.653 1711.7 163.367C1742.31 198.811 1767.68 244.81 1787.11 300.089C1804.58 349.774 1816.77 406.453 1822.38 463.992L1821.28 464.2C1809.29 341.049 1769.09 231.834 1710.99 164.56C1683.82 133.05 1651.5 110.415 1617.52 99.1159C1575.92 85.2789 1537.28 88.2796 1505.76 107.794C1494.11 114.969 1483.63 123.957 1473.72 135.271C1445.85 167.097 1425.19 219.503 1413.98 286.821C1407.89 323.169 1405.23 360.053 1402.65 395.722L1402.62 396.087C1401.48 411.98 1401.12 431.75 1400.74 452.678C1399.57 517.108 1398.11 597.29 1373.84 649.454C1367.89 662.34 1360.64 673.03 1352.29 681.227C1343.29 690.065 1332.72 696.303 1320.86 699.778C1313.8 701.842 1306.52 702.877 1298.97 702.877Z" fill="#A1A1A1"/>
<path d="M321.41 711.806C306.148 711.806 289.529 707.646 270.773 699.15C252.137 690.71 233.706 679.057 216.563 667.725C213.459 665.661 210.379 663.601 207.319 661.555C192.089 651.372 177.703 641.753 164.259 634.261C110.648 604.396 59.5476 577.553 10.1279 551.6L1.93951 547.298L2.35127 545.763L10.5397 550.065C59.962 576.025 111.07 602.868 164.691 632.74C178.173 640.251 192.577 649.881 207.825 660.079C210.882 662.124 213.962 664.184 217.064 666.244C252.254 689.506 289.641 712.05 325.903 710.041C370.477 707.445 397.19 658.865 415.48 616.836C420.166 606.087 424.679 595.375 428.088 587.244C429.97 582.763 431.838 578.286 433.702 573.819C449.156 536.793 463.753 501.82 482.949 468.844C508.289 425.325 540.753 381.083 574.367 344.275C605.551 310.126 637.02 283.145 667.903 264.083C703.325 242.218 737.923 230.871 770.737 230.357C820.112 229.329 865.972 253.094 907.024 300.985C929.78 327.565 950.183 356.319 967.144 380.941C976.372 394.34 985.6 408.075 994.526 421.358C1026.12 468.381 1058.79 517.002 1095.43 556.384C1111.8 573.98 1128.98 591.029 1146.49 607.054C1168.16 626.841 1190.16 645.006 1211.9 661.041C1245.87 686.105 1288.15 717.297 1330.63 706.227C1354.01 700.135 1371.21 683.8 1383.24 656.29C1407.02 602.142 1405.41 517.823 1404.12 450.071C1403.74 430.035 1403.38 411.108 1403.81 395.871C1404.79 361.522 1406.26 321.6 1411.36 282.5C1415.66 249.368 1422.15 219.393 1430.65 193.411C1440.27 164.02 1452.59 139.379 1467.27 120.172C1477 107.443 1487.9 96.6397 1499.68 88.0568C1516.48 75.7694 1535.33 68.0434 1555.71 65.0973C1574.8 62.3372 1594.92 63.7884 1615.52 69.407C1632.9 74.1469 1650.02 81.9423 1666.42 92.5816C1682.92 103.287 1698.31 116.624 1712.15 132.222C1728.1 150.183 1742.77 171.392 1755.75 195.263C1768.04 217.88 1778.94 243.104 1788.14 270.23C1805.34 320.981 1816.66 378.83 1820.87 437.514L1819.71 437.678C1810.66 311.657 1771.19 200.791 1711.41 133.502C1684.04 102.648 1649.9 80.4583 1615.3 71.0186C1572.51 59.3474 1532.71 65.7427 1500.22 89.5116C1488.54 98.0252 1477.73 108.745 1468.07 121.371C1440.41 157.562 1421.71 211.871 1412.52 282.795C1407.43 321.79 1405.96 361.642 1404.98 395.937C1404.55 411.119 1404.91 430.017 1405.29 450.027C1405.93 483.451 1406.65 521.337 1404.23 557.962C1401.43 600.461 1394.88 632.904 1384.24 657.147C1378.44 670.412 1371.24 681.332 1362.85 689.601C1353.78 698.534 1343.01 704.671 1330.84 707.839C1324.7 709.44 1318.57 710.165 1312.48 710.165C1275.97 710.165 1240.6 684.066 1211.35 662.489C1189.59 646.428 1167.55 628.237 1145.85 608.421C1128.31 592.374 1111.11 575.3 1094.72 557.678C1058 518.216 1025.3 469.545 993.674 422.477C984.751 409.198 975.525 395.467 966.302 382.075C949.365 357.482 928.99 328.769 906.276 302.24C865.446 254.603 819.854 230.977 770.755 231.99C693.648 233.201 621.793 294.415 575.091 345.559C541.545 382.293 509.146 426.44 483.862 469.873C464.722 502.75 450.146 537.668 434.715 574.636C432.852 579.102 430.981 583.58 429.099 588.065C425.688 596.199 421.172 606.919 416.483 617.678C408.806 635.322 396.752 661.005 380.787 680.256C373.034 689.605 364.783 696.952 356.264 702.096C346.764 707.832 336.564 711.055 325.952 711.671C324.448 711.762 322.934 711.806 321.41 711.806Z" fill="#A1A1A1"/>
<path d="M331.307 813.332C289.557 813.332 245.751 777.458 206.917 745.653C194.984 735.881 183.713 726.649 173.001 718.843L0 592.772L0.602027 591.157L173.603 717.228C184.343 725.052 195.628 734.295 207.577 744.081C247.912 777.115 293.63 814.557 336.577 811.312C383.208 807.793 407.773 750.28 423.965 700.573C429.26 684.315 434.374 667.772 439.32 651.773C452.848 608.02 466.835 562.775 485.451 520.667C500.233 487.232 518.595 452.167 538.553 419.269C560.447 383.176 583.889 350.062 608.222 320.85C635.052 288.644 662.333 262.002 689.303 241.667C719.135 219.178 748.525 204.495 776.66 198.023C833.022 185.062 884.285 204.732 929.019 256.496C966.195 299.509 997.791 352.698 1028.35 404.137C1054.95 448.911 1082.45 495.206 1113.59 534.781C1149.56 580.488 1188.5 622.67 1229.31 660.148C1263.7 691.727 1306.5 731.032 1350.6 722.198C1387.86 714.738 1409.4 679.866 1416.45 615.586C1422.45 560.909 1416.74 496.048 1412.16 443.935C1410.59 426.174 1409.12 409.399 1408.39 395.795C1404.39 320.802 1406.94 258.895 1416.18 206.541C1421.95 173.875 1430.45 144.758 1441.46 119.997C1453.76 92.3377 1469.55 69.2797 1488.39 51.4649C1504.7 36.0528 1523.07 24.8593 1543 18.1942C1561.98 11.85 1581.95 9.72436 1602.38 11.8756C1642.55 16.105 1681.85 36.7274 1713.03 69.9397C1729.7 87.6925 1744.83 109.051 1758.01 133.418C1770.5 156.513 1781.32 182.455 1790.17 210.53C1806.84 263.416 1816.42 323.602 1817.86 384.576L1816.55 384.638C1813.48 254.793 1774.49 137.691 1712.24 71.3945C1646.14 0.988304 1552.3 -6.75965 1489.12 52.978C1426.53 112.154 1400.55 224.246 1409.69 395.66C1410.41 409.22 1411.88 425.974 1413.45 443.712C1418.04 495.939 1423.76 560.938 1417.73 615.863C1414.45 645.779 1407.85 669.821 1398.12 687.326C1392.65 697.167 1386.05 705.21 1378.51 711.226C1370.49 717.629 1361.16 721.928 1350.79 724.006C1346.55 724.856 1342.23 725.282 1337.85 725.282C1321.86 725.282 1304.84 719.627 1286.18 708.171C1265.17 695.264 1244.89 676.64 1228.59 661.676C1187.72 624.143 1148.73 581.907 1112.71 536.133C1081.5 496.475 1053.97 450.126 1027.34 405.304C996.822 353.931 965.264 300.807 928.182 257.903C883.748 206.493 832.838 186.95 776.863 199.825C663.638 225.865 547.004 384.893 486.551 521.629C467.985 563.621 454.016 608.804 440.506 652.499C435.557 668.505 430.441 685.058 425.14 701.331C414.39 734.332 403.773 757.962 391.727 775.689C384.209 786.752 376.051 795.473 367.483 801.609C357.955 808.431 347.577 812.311 336.637 813.139C334.87 813.266 333.09 813.332 331.307 813.332Z" fill="#A1A1A1"/>
</g>
</svg>
